<svg xmlns="http://www.w3.org/2000/svg" viewBox="0 0 498.88 314.38"><style>.O{fill:#ffcea9}.P{fill:#4b2b89}.Q{fill:#6c3ec5}.R{fill:#2b2a30}.S{fill:#f4f4f4}.T{fill:#bf4b4b}.U{fill:#e5e5e5}.V{fill:#7945dc}</style><defs><clipPath id="A" transform="translate(-1.12 -99.36)"><path fill="none" d="M0 0h500v500H0z"/></clipPath></defs><path fill="#d6d8e5" d="m201.49 26.54-10.47-7.42L157.91 0 24.63 11.33.11 25.58 0 63.26l3.49 2.02v.04l3.49 1.99v.04l3.49 1.98v.04l3.55 1.98 13.28 7.67-.1 35.8 32.04 18.5 10.47 4.03 29.65-16.72 8.68 5.01 10.47 4.25 23.64-13.33.05-20.09 59.19-33.37.1-36.56zm120.52 156.48-24.52 14.25-.11 37.68 3.49 2.02v.04l3.49 1.99v.05l3.49 1.97v.04l3.55 1.99 13.28 7.66-.1 35.8 32.05 18.5 10.47 4.03 29.65-16.72 8.67 5.01 10.47 4.25 23.64-13.33.06-20.09 59.18-33.37.11-36.56-10.47-7.42-33.12-19.12-133.28 11.33z"/><g clip-path="url(#A)"><path fill="#d6d8e5" d="m303.17 189.42.51-.3 3.1-1.86 1.19-.75 2.24-1.41 1.29-.84 2-1.3 1.27-.87 1.83-1.27 1.19-.85 1.75-1.29 1.08-.81 1.78-1.4.85-.68 2.45-2.06 1-.83 1.06-1 .49-.46 1.93-1.92.4-.43 1.36-1.52.5-.59.42-.49 1-1.28.14-.19 1.37-2 .7-1.14.28-.52a15.41 15.41 0 0 0 .45-.86l.56-1.15.36-.84.17-.4.48-1.34q.29-.93.48-1.86c0-.07.05-.15.07-.23s0-.23.05-.35l.14-.86.08-.65.07-.87c.02-.29 0-.27 0-.41v-.47l.1-36.56v1.18a18.73 18.73 0 0 0-3.26-11.74q-5.1-7.86-19.38-15.87l-4.45-2.34a106.45 106.45 0 0 0-3.49-1.85l-3.49-1.87a97.85 97.85 0 0 0-26.64-10.38 91 91 0 0 0-29-1.66 121.51 121.51 0 0 0-30.26 7.15 215.11 215.11 0 0 0-32.51 15.72q-16.94 9.84-26.85 18.79t-12.5 17.44a19.2 19.2 0 0 0-.84 6v-.41l-.11 37.69a20.13 20.13 0 0 0 3.56 11.16q5.3 8.12 19.24 16.12l3.54 2 1.16.59 2.39 1.21 1.4.65 2.14 1 1.52.64 2 .84.14.06.72.27 3.06 1.12 1.36.45 2.59.81.72.22 1.19.32.95.25 3.16.76.88.18 2.24.43.47.09q1.43.25 2.85.45h.17l.47.08q1.42.26 2.85.45h.17l.47.09 2.85.45a1 1 0 0 1 .17 0l.47.08 2.89.45h.34l.79.1 2.47.27.94.09.67.06 2.29.16h.23l2.64.1h5.46c.66 0 1.32-.06 2-.1h.88l3.24-.26h.25q1.91-.19 3.84-.45l1.29-.2 2.58-.4.32-.05 1.42-.27 2-.39 1.78-.4 2-.46 1.8-.45 2-.53 1.83-.52 2-.61.56-.16 1.8-.59 1.16-.37 3.61-1.27a219.82 219.82 0 0 0 32.69-15.24q2-1.14 3.92-2.26m36.09-73.17c0 .21-.05.43-.08.64a36.61 36.61 0 0 1-.14.87v.09a15.27 15.27 0 0 0 .24-1.61m-.34 2.1a18.23 18.23 0 0 1-.49 1.86 18.23 18.23 0 0 0 .49-1.86m-190.26 24.77c-.11-.22-.19-.44-.28-.66a12.84 12.84 0 0 0 .53 1.13l-.25-.47"/><path fill="#653ab8" d="m126.61 19.43-.11 37.68-78.19 6.66.11-37.68 78.19-6.66z"/><path d="m58.26 59.15-.11 37.68L0 63.26l.11-37.68 58.15 33.57z" class="P"/><path d="m191.02 19.12-.1 37.68-77.09 44.8.11-37.69 77.08-44.79z" class="Q"/><path d="m108.14 87.95-.1 37.69-17.85-10.31.11-37.68 17.84 10.3z" class="P"/><path d="m131.78 74.22-.1 37.68-23.64 13.74.1-37.69 23.64-13.73z" class="Q"/><path d="m59.35 95.64-.11 37.68-32.04-18.5.1-37.68 32.05 18.5z" class="P"/><path d="m90.3 77.65-.11 37.68-30.95 17.99.11-37.68L90.3 77.65z" class="Q"/><path d="m113.94 63.92 17.84 10.3-23.63 13.74L90.3 77.64l-30.95 18-32-18.5 31-18L.11 25.58l24.52-14.25L157.88 0 191 19.12zm-32-18.5 44.71-26-78.19 6.66 33.42 19.34" class="V"/><path fill="#512e94" d="m281.93 96.64-1.43-.76-.44-.2-1.09-.48-.27-.12-.16-.05-2-.68-.15-.05-.28-.07-1.32-.32-.28-.07h-.14q-.76-.15-1.56-.27l-1.59-.18h-.5l-1.17-.07h-2.47q-1.05 0-2.13.15h-.14l-.58.07-.88.1-.79.12-.9.14-.25.05h-.28l-2.61.56-2 .51-.65.2-1.42.42-.3.1-.33.11-3.05 1.05-.2.08-3.18 1.24-.5.2-3.4 1.46-.69.31-3.62 1.68-.51.25q-1.83.88-3.75 1.86l-.39.19-4.08 2.14-.8.43q-2.06 1.09-4.21 2.3l-.76.43-4.63 2.64-2.8 1.65-.87.52-1.53.92-.22.13-3.07 1.89-.57.36-2.33 1.48-.9.59-1.88 1.26-.83.56-2.13 1.47-.33.23-2.24 1.62-.6.46-1.48 1.13-.65.52-1.33 1.09-.5.42-1.61 1.42-1.09 1.05-.27.27-.75.78-.33.37-.58.66-.3.37-.2.24q-.26.32-.48.63l-.53.77-.17.28-.28.47-.4.78-.1.22-.23.55v.08a9.27 9.27 0 0 0-.36 1.26 6.89 6.89 0 0 0-.13 1.09v.1a1.09 1.09 0 0 0 0 .18l-.1 37.68v-.28a8.3 8.3 0 0 1 .13-1.09 7.89 7.89 0 0 1 .37-1.27.93.93 0 0 1 0-.13l.23-.54c0-.07.06-.15.1-.23a9.75 9.75 0 0 1 .41-.78l.31-.52.15-.24.52-.77c.18-.26.44-.58.68-.87l.31-.37.57-.66.33-.37.76-.78.26-.27q.54-.54 1.14-1.08l1.61-1.43.5-.42 1.33-1.09.64-.51 1.48-1.14.6-.45 2.24-1.63.33-.1 2.11-1.46.83-.56 1.88-1.25.9-.58 2.34-1.49.56-.36 3.08-1.89 1.71-1 .91-.55 2.8-1.64q2.35-1.36 4.62-2.63l.76-.44 4.22-2.3.8-.43 4.08-2.14.4-.28q1.92-1 3.75-1.86l.51-.25q1.86-.88 3.63-1.68l.68-.31 3.4-1.46.5-.2 3.18-1.24.21-.08 3.05-1 .62-.2 1.42-.43.66-.2 2-.51 2.6-.55.54-.1.89-.15.79-.12.88-.1.72-.08 2.14-.15h2.41q.6 0 1.17.06h.5c.54 0 1.07.1 1.6.18l1.55.27.43.1 1.31.32.44.12 2 .68.43.17q.54.22 1.08.48l.44.21q.74.34 1.44.75 6 3.47 6 7.9l.1-37.68q0-4.44-6-7.9"/><path fill="#492a85" d="M328.88 110.69q0 .45-.06.9c0 .22-.05.44-.08.66l-.14.9-.12.59a19.31 19.31 0 0 1-.49 1.92l-.64 1.79-.92 2.05-.46.89a35.31 35.31 0 0 1-2.34 3.75l-.14.2-1.41 1.82-.5.61-1.36 1.56-.4.45-1.93 2-.49.47-2 1.88-2.45 2.12-.85.69-1.79 1.45-1.07.83-1.75 1.33-1.2.88-1.83 1.32-1.26.89-2 1.34-1.28.86-2.25 1.46-1.19.76-3.1 1.93-.5.31q-1.94 1.17-4 2.36a218.84 218.84 0 0 1-32.56 15.73l-3.61 1.3-1.16.39-2.36.77-2.05.62-1.82.54-2 .55-1.81.46-2 .48-1.78.4-2 .41-1.85.33-2.6.42-1.28.19a100.53 100.53 0 0 1-3.84.47 101.91 101.91 0 0 1-3.48.29h-.89l-2.52.11h-4.4c-1.06 0-2.12 0-3.18-.11h-.23l-3-.22-.95-.1-2.46-.28-.79-.1a90.63 90.63 0 0 1-3.24-.5l-.45-.09-3.13-.61-3.17-.76-.94-.25-1.91-.55-2.59-.8-1.36-.45-3.07-1.13-.86-.32-2-.84-1.52-.64-2.13-1-1.42-.66-2.38-1.21-1.16-.6a67.32 67.32 0 0 1-3.55-2q-13.93-8.06-19.24-16.17a23.14 23.14 0 0 1-1.56-2.75 19 19 0 0 1-2-8.42l-.11 37.69a20.13 20.13 0 0 0 3.56 11.16q5.41 8.23 19.35 16.23l3.54 2 1.16.59 2.39 1.21 1.4.65 2.14 1 1.52.64 2 .84.14.06.72.26 3.06 1.13 1.36.45 2.59.8.72.23 1.19.32.95.25 3.16.76.88.18 2.24.43.47.09 2.89.46h.34l.79.1a98.04 98.04 0 0 0 2.47.29l.94.09.67.06 2.29.16h.23l2.64.11h5.46c.66 0 1.32-.06 2-.1h.88l3.24-.26h.25l3.83-.46 1.3-.21 2.58-.41.32-.05 1.42-.28 2-.41 1.78-.4 2-.47 1.8-.47 2-.55 1.82-.54s1.37-.4 2-.62l.56-.17 1.8-.6 1.16-.39 3.61-1.3a218.92 218.92 0 0 0 32.57-15.73q2-1.17 3.92-2.33h.05l.51-.31 3.1-1.92 1.19-.77 2.24-1.45 1.29-.87 2-1.34 1.28-.89 1.82-1.32a37.11 37.11 0 0 0 1.2-.88l1.75-1.33 1.08-.83 1.78-1.44.85-.7 2.45-2.12.95-.86 1.06-1 .49-.47a40.08 40.08 0 0 0 1.93-2l.4-.45 1.36-1.56.5-.61.42-.51 1-1.31.14-.2 1.37-2 .7-1.17.28-.54.45-.88a31.17 31.17 0 0 0 .55-1.2l.37-.86s.12-.27.17-.41l.47-1.38c.2-.64.36-1.28.49-1.91a2.1 2.1 0 0 0 .06-.24c0-.12 0-.24.06-.36l.14-.9.08-.66.07-.9v-.91l.1-37.68"/><path d="M315.36 133.11q-10 8.94-26.48 18.53a218.84 218.84 0 0 1-32.56 15.73 120.11 120.11 0 0 1-30.14 7.33 90.78 90.78 0 0 1-28.62-1.56 97.53 97.53 0 0 1-28.08-11.15q-13.93-8.06-19.24-16.17-5.31-8.11-2.7-16.74 2.59-8.5 12.5-17.44 9.91-8.94 26.84-18.79a215.11 215.11 0 0 1 32.51-15.76 121.51 121.51 0 0 1 30.26-7.15 91 91 0 0 1 29 1.66 98 98 0 0 1 27.53 10.95q14.29 8.25 19.39 16.35a19.37 19.37 0 0 1 2.39 16.74q-2.61 8.5-12.6 17.45m-98 16.81q14.08-3.47 38.25-17.51 24.35-14.15 30.14-22.19 5.79-8.04-3.82-13.56-9.48-5.48-23.41-2.12-13.93 3.36-38.43 17.6-24 13.94-29.92 22.12-5.92 8.18 3.57 13.65 9.51 5.49 23.6 2" class="V"/><path fill="#653ab8" d="m423.99 191.12-.11 37.68-78.18 6.67.11-37.68 78.18-6.67z"/><path d="m355.64 230.84-.11 37.69-58.14-33.57.11-37.68 58.14 33.56z" class="P"/><path d="m488.41 190.81-.11 37.69-77.09 44.79.11-37.68 77.09-44.8z" class="Q"/><path d="m405.53 259.65-.11 37.68-17.84-10.3.1-37.68 17.85 10.3z" class="P"/><path d="m429.17 245.91-.11 37.68-23.64 13.74.11-37.68 23.64-13.74z" class="Q"/><path d="m356.73 267.33-.1 37.68-32.05-18.5.11-37.68 32.04 18.5z" class="P"/><path d="m387.68 249.35-.1 37.68-30.96 17.98.11-37.68 30.95-17.98z" class="Q"/><path d="m411.33 235.64 17.84 10.31-23.64 13.69-17.84-10.3-30.95 18-32.05-18.5 30.95-18-58.14-33.57 24.52-14.25 133.28-11.33 33.11 19.12zm-32.05-18.5 44.72-26-78.18 6.66 33.46 19.32" class="V"/><path d="M367.16 227.51a53.44 53.44 0 0 0 7.66 10.43c.83 1 7.2-1.47 5.86-2.16s-5.5-6.5-7.59-10.37a131.81 131.81 0 0 1-4.46-14.17c-1.31-4.74-2.44-11.71-3.4-15s-2.92-4.51-4.88-5c-2.29-.53-3.77.1-3.36 2.87.74 4.88 4.54 23.79 10.17 33.36" class="O"/><path d="M363.51 301.64c2 1.61 4.88.14 5 .29a90.17 90.17 0 0 0 7.29 6.07c1.23 1 3.15 2.26 2.81 4.13-.63 3.32-6 2.3-8 1.28s-3.65-2.7-5.55-3.89c-1.36-.84-2.69-1.27-2.91-3-.12-1 .94-4.93 1.3-4.89" class="R"/><path d="M362.24 305.82c.26 1.64 1.58 2.09 2.93 2.93 1.93 1.2 3.63 2.93 5.64 3.95s6.49 1.88 7.8-.5c-.71 3.21-6 2.2-7.94 1.19s-3.65-2.7-5.55-3.89c-1.36-.84-2.69-1.28-2.9-3a2.77 2.77 0 0 1 0-.69" class="T"/><path d="M383.54 290.08c2 1.61 5.44-.15 5.58 0a75.42 75.42 0 0 0 6.51 5.88c1.24 1 3.16 2.27 2.81 4.13-.62 3.33-5.95 2.3-8 1.28s-3.66-2.7-5.56-3.88c-1.36-.85-2.69-1.28-2.9-3-.13-1 1.17-4.45 1.52-4.41" class="R"/><path d="M382.08 294.04c.26 1.64 1.58 2.09 2.92 2.93 1.94 1.2 3.64 2.93 5.65 3.95s6.49 1.87 7.8-.5c-.71 3.21-5.95 2.2-7.94 1.19s-3.65-2.71-5.55-3.89c-1.36-.84-2.7-1.28-2.91-3a2.85 2.85 0 0 1 0-.69" class="T"/><path fill="#e26d6d" d="M337.09 238.3c-2.21 13.68 3.89 18.78 11.79 21.69l13.79 5.31s-.11 3-.17 9.74c-.06 5.93.72 27.59.72 27.59s3.28 1.7 6.05-.07c0 0 3.19-16.59 3.86-24.07.92-10.15 2.48-16.79 2-19-.46-1.92-11.55-7.38-15.07-10.3l23.24 7.79a41.34 41.34 0 0 0-.68 7.64l.66 25.49s3.19 2.3 5.91 0c0 0 5.85-34.51 5.14-39.08-.68-4.33-21.16-13.19-24.76-16.24a5.75 5.75 0 0 0-4.59-1.15z"/><path d="m392.82 244-15.62-9a.9.9 0 0 0-.9 0l-27.42 15.8 16.06 9.27z" class="S"/><g fill="#3a2c6d"><path d="m364.25 256.76-1.19.68c-.1.06-.09.16 0 .22l1.14.66a.42.42 0 0 0 .38 0l1.19-.68c.1-.06.08-.16 0-.22l-1.13-.66a.42.42 0 0 0-.38 0m1.67-.98-1.19.69c-.1.06-.08.16 0 .22l1.14.66a.4.4 0 0 0 .37 0l1.19-.69c.1 0 .09-.15 0-.21l-1.14-.66a.43.43 0 0 0-.38 0m1.72-.99-1.19.69c-.1 0-.09.15 0 .22l1.14.65a.43.43 0 0 0 .38 0l1.19-.69c.1-.06.08-.15 0-.22l-1.13-.65a.4.4 0 0 0-.38 0m1.65-.96-1.19.69c-.1.05-.08.15 0 .21l1.14.66a.44.44 0 0 0 .37 0l1.19-.69c.1-.06.09-.16 0-.22l-1.14-.66a.42.42 0 0 0-.38 0m1.7-.96-1.19.68c-.1.06-.09.16 0 .22l1.14.66a.42.42 0 0 0 .38 0l1.19-.68c.1-.06.08-.16 0-.22l-1.13-.66a.42.42 0 0 0-.38 0m1.67-.98-1.19.69c-.1.06-.08.15 0 .22l1.14.65a.38.38 0 0 0 .37 0l1.19-.69c.1-.05.09-.15 0-.22l-1.14-.65a.43.43 0 0 0-.38 0m1.7-.97-1.19.69c-.1 0-.09.15 0 .22l1.14.65a.43.43 0 0 0 .38 0l1.19-.69c.1-.06.08-.15 0-.22l-1.13-.65a.4.4 0 0 0-.38 0m1.67-.97-1.16.69c-.09.06-.08.16 0 .22l1.14.66a.42.42 0 0 0 .38 0l1.19-.68c.09-.06.08-.16 0-.22l-1.14-.66a.42.42 0 0 0-.38 0m1.66-.99-1.19.69c-.1.06-.09.16 0 .22l1.14.66a.42.42 0 0 0 .38 0l1.19-.69c.1-.05.08-.15 0-.21l-1.13-.66a.43.43 0 0 0-.38 0m1.67-.98-1.19.69c-.09.05-.08.15 0 .22l1.14.65a.43.43 0 0 0 .38 0l1.19-.69c.09-.05.08-.15 0-.22l-1.14-.65a.4.4 0 0 0-.38 0m1.69-.97-1.19.68c-.1.06-.09.16 0 .22l1.14.66a.46.46 0 0 0 .38 0l1.19-.69c.1-.06.08-.16 0-.22l-1.13-.66a.42.42 0 0 0-.38 0m1.67-.97-1.19.69c-.09.06-.08.16 0 .22l1.14.66a.42.42 0 0 0 .38 0l1.19-.68c.09-.06.08-.16 0-.22l-1.14-.66a.46.46 0 0 0-.38 0m1.69-.98-1.19.69c-.1.06-.09.15 0 .22l1.14.65a.4.4 0 0 0 .38 0l1.19-.69c.1-.05.08-.15 0-.22l-1.13-.65a.43.43 0 0 0-.38 0m2.48-1.44-2 1.16c-.1 0-.08.15 0 .22l1.14.65a.41.41 0 0 0 .37 0l2-1.16c.09-.05.08-.15 0-.22l-1.14-.65a.4.4 0 0 0-.38 0m-21.84 10.73-1.19.69c-.09.05-.08.15 0 .22l1.14.65a.43.43 0 0 0 .38 0l1.19-.69c.09-.06.08-.15 0-.22l-1.14-.65a.4.4 0 0 0-.38 0m1.69-.97-1.19.68c-.1.06-.08.16 0 .22l1.13.66a.42.42 0 0 0 .38 0l1.19-.68c.1-.06.09-.16 0-.22l-1.14-.66a.42.42 0 0 0-.38 0m1.7-.98-1.19.69c-.1 0-.09.15 0 .22l1.13.65a.4.4 0 0 0 .38 0l1.19-.69c.1-.05.09-.15 0-.22l-1.12-.63a.43.43 0 0 0-.38 0m1.68-.99-1.19.68c-.1.06-.09.16 0 .22l1.14.66a.42.42 0 0 0 .38 0l1.19-.68c.1-.06.08-.16 0-.22l-1.13-.66a.42.42 0 0 0-.38 0m1.69-.97-1.19.69c-.1.05-.08.15 0 .22l1.13.65a.43.43 0 0 0 .38 0l1.19-.69c.1-.06.09-.15 0-.22l-1.14-.65a.4.4 0 0 0-.38 0m1.67-.97-1.19.68c-.1.06-.08.16 0 .22l1.13.66a.42.42 0 0 0 .38 0l1.19-.68c.1-.06.09-.16 0-.22l-1.14-.66a.42.42 0 0 0-.38 0m1.7-.98-1.19.69c-.1.05-.09.15 0 .22l1.14.65a.43.43 0 0 0 .38 0l1.19-.69c.1 0 .08-.15 0-.22l-1.13-.65a.4.4 0 0 0-.38 0m1.64-.97-1.19.68c-.1.06-.09.16 0 .22l1.14.66a.42.42 0 0 0 .38 0l1.19-.68c.1-.06.08-.16 0-.22l-1.13-.66a.42.42 0 0 0-.38 0m1.71-.98-1.19.69c-.09.06-.08.15 0 .22l1.14.65a.4.4 0 0 0 .38 0l1.19-.69c.09-.05.08-.15 0-.22l-1.14-.59a.43.43 0 0 0-.38 0m1.69-1-1.19.68c-.1.06-.08.16 0 .22l1.14.66a.4.4 0 0 0 .37 0l1.19-.68c.1-.06.09-.16 0-.22l-1.14-.66a.42.42 0 0 0-.38 0m1.7-1-1.19.69c-.1.06-.09.15 0 .22l1.13.66a.42.42 0 0 0 .38 0l1.19-.69c.1-.05.09-.15 0-.22l-1.13-.65a.43.43 0 0 0-.38 0m1.69-1.01-1.19.69c-.1.05-.09.15 0 .21l1.13.66a.46.46 0 0 0 .38 0l1.19-.69c.1-.06.09-.16 0-.22l-1.13-.66a.42.42 0 0 0-.38 0m-20.24 11.72-2 1.15c-.09.06-.08.16 0 .22l1.14.66a.42.42 0 0 0 .38 0l2-1.15c.09-.06.08-.16 0-.22l-1.14-.66a.4.4 0 0 0-.37 0m23.44-11.77-1.19.69a.43.43 0 0 1-.35 0l-1.2-.7a.1.1 0 0 1 0-.2l.09-.06c.09-.05.09-.13 0-.19l-1.27-.73a.1.1 0 1 1 0-.2l.76-.44a.39.39 0 0 1 .35 0l1.19.69.24.14.18.1.18.1 1 .59c.1.06.1.15 0 .21m-29.14 9.4-1.19.69c-.1.05-.08.15 0 .22l1.13.65a.43.43 0 0 0 .38 0l1.19-.69c.1-.06.09-.15 0-.22l-1.14-.65a.4.4 0 0 0-.38 0m1.69-.97-1.19.69c-.1.05-.08.15 0 .22l1.13.65a.43.43 0 0 0 .38 0l1.19-.69c.1-.05.09-.15 0-.22l-1.14-.65a.4.4 0 0 0-.38 0m1.69-.97-1.19.69c-.1.05-.08.15 0 .22l1.14.65a.41.41 0 0 0 .37 0l1.19-.69c.1-.05.09-.15 0-.22l-1.14-.65a.4.4 0 0 0-.38 0m14.32-8.26-1.19.69c-.1.05-.08.15 0 .21l1.13.66a.43.43 0 0 0 .38 0l1.19-.69c.1-.06.09-.15 0-.22l-1.14-.65a.4.4 0 0 0-.38 0m1.69-.97-1.19.69c-.1.05-.08.15 0 .21l1.13.66a.43.43 0 0 0 .38 0l1.19-.69c.1-.06.09-.16 0-.22l-1.14-.66a.42.42 0 0 0-.38 0m1.69-.96-1.19.69c-.1.05-.08.15 0 .22l1.13.65a.43.43 0 0 0 .38 0l1.19-.69c.1-.06.09-.15 0-.22l-1.14-.65a.4.4 0 0 0-.38 0m1.69-.97-1.19.69c-.1.05-.08.15 0 .21l1.13.66a.43.43 0 0 0 .38 0l1.19-.69c.1-.06.09-.16 0-.22l-1.14-.65a.4.4 0 0 0-.38 0m-17.23 9.95-1.62.94c-.1.05-.08.15 0 .22l1.13.65a.43.43 0 0 0 .38 0l1.63-.94c.09-.06.08-.15 0-.22l-1.14-.65a.4.4 0 0 0-.38 0m10.52-6.07-1.62.94c-.1.05-.09.15 0 .22l1.14.65a.43.43 0 0 0 .38 0l1.62-.94c.1-.06.09-.15 0-.22l-1.14-.65a.4.4 0 0 0-.38 0m-2.11 1.22-7.92 4.57c-.09.05-.08.15 0 .22l1.14.65a.43.43 0 0 0 .38 0l7.91-4.57c.1-.06.08-.15 0-.22l-1.13-.65a.4.4 0 0 0-.38 0m-7.66 8.19-1.19.69c-.1.06-.09.15 0 .22l1.13.65a.4.4 0 0 0 .38 0l1.19-.69c.1-.05.09-.15 0-.22l-1.13-.65a.43.43 0 0 0-.38 0m1.68-.97-1.19.69c-.09.05-.08.15 0 .22l1.14.65a.41.41 0 0 0 .37 0l1.19-.69c.1-.05.09-.15 0-.22l-1.14-.65a.4.4 0 0 0-.38 0m1.69-.97-1.18.69c-.1.05-.09.15 0 .22l1.14.65a.43.43 0 0 0 .38 0l1.19-.69c.09-.06.08-.15 0-.22l-1.14-.65a.4.4 0 0 0-.38 0m1.68-.97-1.19.68c-.1.06-.09.16 0 .22l1.13.66a.42.42 0 0 0 .38 0l1.19-.68c.1-.06.09-.16 0-.22l-1.13-.66a.42.42 0 0 0-.38 0m1.68-.97-1.19.68c-.1.06-.08.16 0 .22l1.13.66a.42.42 0 0 0 .38 0l1.19-.68c.1-.06.09-.16 0-.22l-1.14-.66a.42.42 0 0 0-.38 0m1.69-.98-1.19.69c-.09.06-.08.16 0 .22l1.14.66a.42.42 0 0 0 .38 0l1.19-.68c.09-.06.08-.16 0-.22l-1.14-.66a.46.46 0 0 0-.38 0m1.69-.98-1.19.69c-.1.06-.09.15 0 .22l1.13.65a.4.4 0 0 0 .38 0l1.19-.69c.1-.05.09-.15 0-.22l-1.13-.65a.43.43 0 0 0-.38 0m1.68-.97-1.19.69c-.1 0-.08.15 0 .22l1.13.65a.43.43 0 0 0 .38 0l1.19-.69c.1-.06.09-.15 0-.22l-1.14-.65a.4.4 0 0 0-.38 0m1.69-.97-1.19.69c-.09.05-.08.15 0 .21l1.14.66a.43.43 0 0 0 .38 0l1.19-.69c.09-.06.08-.15 0-.22l-1.14-.66a.42.42 0 0 0-.38 0m1.69-.96-1.19.68c-.1.06-.09.16 0 .22l1.14.66a.42.42 0 0 0 .38 0l1.19-.68c.1-.06.08-.16 0-.22l-1.13-.66a.42.42 0 0 0-.38 0m1.67-.98-1.19.69c-.1.06-.08.16 0 .22l1.13.66a.42.42 0 0 0 .38 0l1.19-.68c.1-.06.09-.16 0-.22l-1.14-.66a.46.46 0 0 0-.38 0"/><path d="m382.45 242.47-1.19.69c-.09.06-.08.16 0 .22l1.14.66a.42.42 0 0 0 .38 0l1.19-.69c.09-.05.08-.15 0-.21l-1.14-.66a.43.43 0 0 0-.38 0m-20.19 11.66-2.47 1.42c-.09.05-.08.15 0 .22l1.14.65a.43.43 0 0 0 .38 0l2.46-1.42c.09-.06.08-.16 0-.22l-1.13-.66a.42.42 0 0 0-.38 0m-.79-1.43-1.19.69c-.1.06-.09.15 0 .22l1.13.65a.4.4 0 0 0 .38 0l1.19-.69c.1-.05.09-.15 0-.22l-1.13-.65a.43.43 0 0 0-.38 0m1.68-.97-1.19.69c-.09.05-.08.15 0 .22l1.14.65a.43.43 0 0 0 .38 0l1.18-.69c.1-.06.09-.15 0-.22l-1.14-.65a.4.4 0 0 0-.38 0m1.74-.97-1.19.69c-.1.05-.09.15 0 .22l1.14.65a.43.43 0 0 0 .38 0l1.19-.69c.1-.06.08-.15 0-.22l-1.13-.65a.4.4 0 0 0-.38 0m1.63-.97-1.19.68c-.1.06-.09.16 0 .22l1.13.66a.42.42 0 0 0 .38 0l1.19-.68c.1-.06.09-.16 0-.22l-1.13-.66a.42.42 0 0 0-.38 0m1.68-.97-1.19.68c-.1.06-.08.16 0 .22l1.13.66a.42.42 0 0 0 .38 0l1.19-.68c.1-.06.09-.16 0-.22l-1.14-.66a.42.42 0 0 0-.38 0m1.69-.98-1.19.69c-.09.06-.08.16 0 .22l1.14.66a.42.42 0 0 0 .38 0l1.19-.68c.09-.06.08-.16 0-.22l-1.14-.66a.46.46 0 0 0-.38 0m1.69-.98-1.19.69c-.1.06-.09.15 0 .22l1.14.65a.4.4 0 0 0 .38 0l1.19-.69c.1-.05.08-.15 0-.22l-1.13-.65a.43.43 0 0 0-.38 0m1.67-.97-1.19.69c-.1.05-.08.15 0 .22l1.13.65a.43.43 0 0 0 .38 0l1.19-.69c.1-.06.09-.15 0-.22l-1.14-.65a.4.4 0 0 0-.38 0m1.69-.97-1.19.69c-.09 0-.08.15 0 .22l1.14.65a.43.43 0 0 0 .38 0l1.18-.69c.1-.06.09-.15 0-.22l-1.14-.65a.4.4 0 0 0-.38 0m1.7-.97-1.19.68c-.1.06-.09.16 0 .22l1.14.66a.46.46 0 0 0 .38 0l1.19-.69c.1-.06.08-.16 0-.22l-1.13-.66a.42.42 0 0 0-.38 0m1.67-.96-1.19.68c-.1.06-.09.16 0 .22l1.13.66a.42.42 0 0 0 .38 0l1.19-.68c.1-.06.09-.16 0-.22l-1.13-.66a.42.42 0 0 0-.38 0m3.76-2.18-3.27 1.89c-.1.06-.08.16 0 .22l1.13.66a.42.42 0 0 0 .38 0l3.28-1.89c.09-.05.08-.15 0-.22l-1.14-.65a.43.43 0 0 0-.38 0m-22.27 12.82-1.63.94c-.09.06-.08.16 0 .22l1.14.66a.42.42 0 0 0 .38 0l1.62-.94c.1-.05.08-.15 0-.21l-1.13-.66a.46.46 0 0 0-.38 0m28.87-9.01-23.9 13.8c-.1.05-.09.15 0 .22l.57.32a.43.43 0 0 0 .38 0l23.9-13.8c.1-.06.08-.16 0-.22l-.57-.33a.4.4 0 0 0-.37 0"/></g><path fill="#bfbfbf" d="m360.69 245.23.15.09 4.13 2.38 7.34-4.24.15-.08-4.28-2.48-7.49 4.33z"/><path d="m360.84 245.32 4.13 2.38 7.34-4.24-4.13-2.38-7.34 4.24zm-11.96 5.48v.36a1.52 1.52 0 0 0 .75 1.31l14.56 8.4a1.43 1.43 0 0 0 .75.2 1.49 1.49 0 0 0 .76-.2l26.36-15.23a1.51 1.51 0 0 0 .76-1.31v-.36l-27.85 16.07z" class="U"/><path d="M365.4 260.3a1.81 1.81 0 0 0 1.54-.12l26.22-15.14a1.82 1.82 0 0 0 .87-1.25l2.85-17.15v-.29a1.77 1.77 0 0 0-.53-1.27l-27.21 15.76a1.35 1.35 0 0 0-.64.93z" class="S"/><path d="m364.97 260.07.18.11.25.12 3.1-18.53a1.35 1.35 0 0 1 .64-.93l27.25-15.73a1.65 1.65 0 0 0-.36-.28l-27.31 15.81a1.31 1.31 0 0 0-.64.92z" class="U"/><path d="m345.18 186.81.19 7.09c-.14.58-3 2.48-3.82 3.17s4.5 5.94 7.1 7.13 10.8-1.94 11-6-1.41-7.42-2.67-7.6-11.75-3.81-11.75-3.81" class="O"/><path d="M344.45 195.02s4.73 7.05 11.32 7.71c2.08-2 2.27-9.35-.61-11.68 0 0 2.65-2.13 4.46-1.72a9.36 9.36 0 0 1 4.07 5.2 42.53 42.53 0 0 1 2.33 15.11c-.11 6.91 0 24.38 0 24.38s-1 6.68-6.95 10a21.49 21.49 0 0 1-15.65 2.16c-3.34-.78-4.58-2.65-5.73-5.08.3-4.84 2.21-14.81 1.41-20.91s-2.1-10.63-2.43-15.56.65-4.83 3.12-6.58a39.58 39.58 0 0 1 4.66-3" class="S"/><path d="M352.03 251.16a34.77 34.77 0 0 0-3.7-2.12 7.71 7.71 0 0 1-3.17-1.92c-1.16-1.13-3.06-5.43-4.41-9.61a43.17 43.17 0 0 1-1.6-14.55c.58-5.87 2.69-14.09 3.23-17.47s-.56-4.72-2.13-6c-1.84-1.46-4.39-.81-5.75 3.92a91.79 91.79 0 0 0-3 20.06 45.81 45.81 0 0 0 2.3 14.82 53.35 53.35 0 0 0 5.65 11.65c.65 1.09.86 2.06 1.85 4.29a15.1 15.1 0 0 0 4.33 5.76c1.65 1.19 2.44 1.35 2.83 1.12s.38-.81-.31-1.44a12.29 12.29 0 0 1-3-3.31s1.44 1.45 2.39 2.25a12.54 12.54 0 0 0 2.77 1.76c1 .42 2.31-.4 1.63-1.05s-1.39-1-2.78-2.17a12.19 12.19 0 0 1-2-2.13 23.21 23.21 0 0 0 3.07 2 5.2 5.2 0 0 0 2.8.76c.52 0 1.14-.74.18-1.43a18.6 18.6 0 0 1-3.67-2.5c-1.06-1.06-1.66-2-1.36-2s.88.65 2.12 1 2.57 0 2.73-.65.11-.55-1.05-1.13m7.9-73.97c-.78-5.06-4.42-8.89-9.63-8.6a10.05 10.05 0 0 0-9.49 10.6 10 10 0 0 0 4.38 7.7 10.78 10.78 0 0 0 .8 2.22c1.85 2.15 7.43 3.49 9 3.26 2.06-.3 3.17-1.16 4.15-3.41 1.73-4 1.19-9.27.76-11.77" class="O"/><path d="m345.18 186.8.48-4.41s-3.61-9.33 4.91-7.54c5.62 1.19 7 1.7 8.74-2.07s-4.32-7.17-11.49-6.23a9.91 9.91 0 0 0-8.86 10c.19 2.78.93 8.39 6.22 10.2" class="R"/><path fill="#ededed" d="M330.6 212.13s4.65 4.62 10.15 3.29c.78-.53 2.67-11.34 2.67-11.34s0-6-4.59-5.83-8.23 13.88-8.23 13.88m35.1-8.97s2.43-.12 3.43-1.53c-.18-2.42-3.28-11.61-9.51-12.3a11.56 11.56 0 0 1 3.89 4.7 60.09 60.09 0 0 1 2.19 9.13"/><g class="R"><path d="M62.76 3.97c1.23-2 10.6-3.27 13.69 4.67 1.17 3 1 10.72 2 15.56s3.28 7.58 4.11 11.51-.52 10.5-10 11.67-16.74-2.16-19-5.18-2.28-9.42 0-12.87 4.09-6.24 4-10.73z"/><path d="M68.95 2.64s-7.06-2-11.34 1.79a10.47 10.47 0 0 0-3 10.46c.57 2.23 1.71 5.27 3.48 5.44S68.95 2.64 68.95 2.64"/></g><g class="O"><path d="m71.65 21.86-.32 8.44c.14.57 3.09 1.14 3.92 1.83s-4.28 8.67-6.88 9.85-10.64-1.83-11.2-5.83c-.51-3.69 2.31-6.55 3.39-7.55a16 16 0 0 1 2.22 0l.23-3.82 8.64-2.87"/><path d="M48.5 63.86a41.56 41.56 0 0 1-7.85 8.16 40.79 40.79 0 0 0-2.68 3.09 11.87 11.87 0 0 1-5.26 3.5c-1.78.46-2.53.34-2.83 0s-.16-.85.62-1.15a9.86 9.86 0 0 0 3.45-1.82s-1.66.76-2.7 1.13a10.62 10.62 0 0 1-2.91.57c-1 0-2-1.14-1.23-1.47s1.48-.36 3-.93a9.65 9.65 0 0 0 2.28-1.17 19.47 19.47 0 0 1-3.24.67 5 5 0 0 1-2.71-.31c-.46-.2-.86-1 .17-1.31a15.34 15.34 0 0 0 3.91-.9c1.2-.55 2-1.12 1.69-1.24s-1 .26-2.16.17-2.33-.85-2.32-1.5.26-.29 1.44-.39 2.12-.64 3.81-.64a11.92 11.92 0 0 0 3.75-.45c1.28-.38 4.16-3.83 6.37-7a46 46 0 0 0 5.64-11.42c1.33-4.36 2.91-12.52 4-15.35s3.07-4.13 4.92-4.19c2.17-.07 3.1 2.79 2.52 5.26-1 4.33-5.84 21-11.72 28.72"/></g><path d="M72.73 31.07c2.21.34 4.74 1.52 5.09 2.73.4 1.42 1.28 8.07-.64 13.14S73.1 61.14 72 63.33c0 0-8.76 1.56-16.48-3.22l-.49-11.71c-7.12-6.22-1-13.87 5-19.83a13.12 13.12 0 0 1 2.17 0s-5.38 6.36-1.64 10c8-2.43 9.61-6 12.17-7.46" class="S"/><path d="M56.95 12.1c.79-5 4.44-8.87 9.66-8.57a10 10 0 0 1 5 18.33 10.16 10.16 0 0 1-.8 2.21c-1.86 2.15-6.76 3.51-8.38 3.53-1.4 0-2.61-1.29-3.92-3.46-2.73-4.53-2-9.54-1.6-12" class="O"/><path d="M68.22 3.64c3.66.72 6.67 1.75 7.66 5.34.68 2.48 1.57 7.19.72 9.18l-.52 1.43-4.43 2.29s-2.07-1.73-1.42-6.78a3.67 3.67 0 0 0-.63-1.91 5.75 5.75 0 0 1-.61-1.52 5.7 5.7 0 0 0-2.87-3.11c-3.3-1.85-8.13-.25-8.8.41a9.63 9.63 0 0 1 10.9-5.33m-20.14 121c-1.85 1.51-4.73.47-4.87.61-1.88 1.88-4.69 3.53-6.78 5.17-1.15.91-2.95 2.13-2.62 3.87.58 3.12 5.57 2.16 7.46 1.21s3.42-2.54 5.2-3.65c1.27-.79 2.52-1.19 2.72-2.8.12-1-.78-4.44-1.11-4.41" class="R"/><path d="M49.17 128.42c-.25 1.54-1.48 2-2.74 2.75-1.82 1.12-3.41 2.75-5.29 3.7s-6.09 1.77-7.26-.47c.66 3 5.57 2.06 7.44 1.12s3.42-2.54 5.2-3.65c1.27-.79 2.52-1.19 2.72-2.8a3 3 0 0 0 0-.65" class="T"/><path d="M39.06 119.64c-1.69 1.38-4.25.61-4.38.74-1.72 1.73-4.28 3.21-6.2 4.72-1.05.83-2.7 1.94-2.4 3.54.53 2.86 5.1 2 6.83 1.11s3.13-2.33 4.77-3.34c1.16-.72 2.31-1.1 2.49-2.57.11-.89-.81-4.23-1.11-4.2" class="R"/><path d="M40.15 123.21c-.23 1.4-1.36 1.79-2.51 2.51-1.66 1-3.12 2.52-4.85 3.39s-5.57 1.61-6.69-.43c.61 2.75 5.1 1.89 6.81 1s3.13-2.32 4.77-3.33c1.16-.73 2.31-1.1 2.49-2.57a2.46 2.46 0 0 0 0-.59" class="T"/><g class="O"><path d="M64.7 65.27a27.49 27.49 0 0 1-14.75-2.13l.16 3c-6 4.24-18 11.38-18.83 16.31.78 15.57 3.15 37.81 3.82 38.13 1.89.9 3.21.75 4.09-.14 0 0 3.79-13.19 2.69-32.55 0 0 21-9.3 22.37-14.38.79-2.93.63-3.3.57-6.33 0-.63-.06-1.25-.12-1.87"/><path d="M71.67 63.25c-4.16 1.94-8 2.18-12.68 1.7.06 2.08.3 6 .3 6-6 4.24-18 11.38-18.84 16.31.79 15.57 2.24 38.12 2.93 38.4a5 5 0 0 0 5-.58s3.79-13 2.69-32.38c0-.36 18-9.22 20.28-11.57 2.45-2.51 2.73-5.82 2.67-9.14-.06-3.12-1-5.69-2.33-8.74"/></g><path fill="#e26d6d" d="M76.08 66.55s6.66 11.79-4.44 17.85c-11.7 6.39-18.84 7.89-18.84 7.89l-1.75.41s.83 4.28 0 12.25c0 0-8.35 2.92-19-6.46l-3.53-11.36-.42-3a6.31 6.31 0 0 1 1.78-5.74c2.55-2.31 10.65-8.24 15.69-11.64s9.06-6.64 9.06-6.64l.88-.82s6 4.75 16.89 3.16a17.55 17.55 0 0 1 3.71 4.1"/><path d="M69.48 84.04c1-.69 1.68-1.68 3.22-2.54a12.72 12.72 0 0 0 3.24-2.31c1-1 2.53-5.3 3.32-9.48a41.35 41.35 0 0 0-.24-14.07 97.93 97.93 0 0 0-5.57-16.18c-1.48-3.13-.65-5 .7-6.42 1.59-1.63 3.25-1.59 5.13 2.78s4.89 12.63 5.85 19a42 42 0 0 1-.19 14.34 52.73 52.73 0 0 1-3.82 12c-.49 1.13-.57 2.08-1.24 4.34a14.58 14.58 0 0 1-3.45 6c-1.44 1.34-2.17 1.6-2.57 1.42s-.47-.73.12-1.42a11.84 11.84 0 0 0 2.42-3.53s-1.21 1.57-2 2.45a11.51 11.51 0 0 1-2.43 2c-.88.53-2.27-.09-1.69-.8s1.21-1.1 2.39-2.42a11.71 11.71 0 0 0 1.62-2.28 21.86 21.86 0 0 1-2.7 2.28A5 5 0 0 1 69 90.27c-.49 0-1.17-.57-.34-1.35a18.41 18.41 0 0 0 3.22-2.69c.88-1.14 1.35-2.06 1.06-2.05s-.76.72-1.9 1.25-2.46.35-2.69-.28.12-.41 1.16-1.11" class="O"/><path fill="#ededed" d="M82.19 41.7s-4 3.58-8.53 2.85l-1.78-7.5s-1.19-4 2.2-5.46 6.61 2.44 8.07 10.11M60.03 28.57s-4.37-1.33-9 8.35l1.73 1.05s4.57-6.91 7.28-9.4"/><path d="m29.88 70.32 15.57-9a.89.89 0 0 1 .89 0l27.3 15.76-16 9.25z" class="S"/><g fill="#3a2c6d"><path d="m58.02 82.79 1.19.69c.1 0 .08.15 0 .22l-1.14.65a.41.41 0 0 1-.37 0l-1.22-.71c-.1-.06-.09-.15 0-.22l1.14-.65a.4.4 0 0 1 .38 0m-1.67-.95 1.19.69c.1 0 .09.15 0 .21l-1.14.66a.46.46 0 0 1-.38 0l-1.19-.69c-.1-.06-.08-.16 0-.22l1.13-.66a.42.42 0 0 1 .38 0m-1.69-.98 1.19.69c.09.06.08.15 0 .22l-1.14.66a.4.4 0 0 1-.37 0l-1.19-.69c-.1-.05-.09-.15 0-.21l1.14-.66a.43.43 0 0 1 .38 0m-1.68-.97 1.19.69c.1.06.09.15 0 .22l-1.13.65a.4.4 0 0 1-.38 0l-1.19-.69c-.1-.05-.09-.15 0-.22l1.13-.65a.43.43 0 0 1 .38 0m-1.68-.97 1.19.69c.09.05.08.15 0 .22l-1.14.65a.43.43 0 0 1-.38 0l-1.19-.69c-.09-.06-.08-.15 0-.22l1.14-.65a.4.4 0 0 1 .38 0m-1.69-.97 1.19.68c.1.06.09.16 0 .22l-1.13.66a.42.42 0 0 1-.38 0l-1.19-.68c-.1-.06-.09-.16 0-.22l1.13-.66a.42.42 0 0 1 .38 0m-1.71-.98 1.19.69c.09.06.08.15 0 .22l-1.14.66a.42.42 0 0 1-.38 0l-1.19-.69c-.09 0-.08-.15 0-.21l1.14-.66a.43.43 0 0 1 .38 0m-1.66-.98 1.19.69c.1.05.09.15 0 .22l-1.13.65a.43.43 0 0 1-.38 0l-1.19-.69c-.1-.06-.09-.15 0-.22l1.13-.65a.4.4 0 0 1 .38 0m-1.68-.97 1.19.68c.09.06.08.16 0 .22l-1.14.66a.46.46 0 0 1-.38 0l-1.19-.69c-.09-.06-.08-.16 0-.22l1.14-.66a.42.42 0 0 1 .38 0m-1.66-.97 1.19.69c.1.06.09.16 0 .22l-1.19.7a.42.42 0 0 1-.38 0l-1.19-.68c-.1-.06-.09-.16 0-.22l1.13-.66a.46.46 0 0 1 .38 0m-1.65-1.02 1.19.69c.09.06.08.15 0 .22l-1.14.65a.4.4 0 0 1-.38 0l-1.19-.69c-.09-.05-.08-.15 0-.22l1.14-.65a.43.43 0 0 1 .38 0m-1.69-.97 1.19.69c.1.05.09.15 0 .22l-1.13.65a.43.43 0 0 1-.38 0l-1.19-.69c-.1-.06-.09-.15 0-.22l1.13-.65a.4.4 0 0 1 .38 0m-1.68-.97 1.19.68c.09.06.08.16 0 .22l-1.14.66a.42.42 0 0 1-.38 0L36.28 72c-.09-.06-.08-.16 0-.22l1.14-.66a.42.42 0 0 1 .38 0m-2.5-1.48 2 1.15c.1.06.09.16 0 .22l-1.13.66a.42.42 0 0 1-.38 0l-2-1.15c-.1-.06-.09-.16 0-.22l1.14-.66a.42.42 0 0 1 .38 0M57.15 80.4l1.19.69c.1.06.09.16 0 .22l-1.13.66a.42.42 0 0 1-.38 0l-1.19-.68c-.1-.06-.09-.16 0-.22l1.13-.66a.46.46 0 0 1 .38 0m-1.69-.98 1.19.69c.1.05.09.15 0 .22l-1.14.65a.43.43 0 0 1-.38 0l-1.25-.67c-.1-.06-.08-.15 0-.22l1.13-.65a.4.4 0 0 1 .38 0m-1.61-.99 1.18.68c.1.06.09.16 0 .22l-1.14.66a.42.42 0 0 1-.38 0l-1.19-.68c-.09-.06-.08-.16 0-.22l1.14-.66a.42.42 0 0 1 .38 0m-1.68-.98 1.19.69c.09.05.08.15 0 .22l-1.14.65a.43.43 0 0 1-.38 0l-1.19-.69c-.09 0-.08-.15 0-.22l1.14-.65a.43.43 0 0 1 .38 0m-1.68-.97 1.19.69c.1.06.09.16 0 .22l-1.14.66a.42.42 0 0 1-.38 0l-1.2-.68c-.1 0-.08-.15 0-.21l1.13-.66a.46.46 0 0 1 .38 0m-1.67-.99 1.19.69c.1 0 .09.15 0 .22l-1.14.65a.43.43 0 0 1-.38 0l-1.19-.69c-.09-.06-.08-.15 0-.22l1.14-.65a.38.38 0 0 1 .37 0m-1.67-.97 1.19.68c.09.06.08.16 0 .22l-1.14.66a.42.42 0 0 1-.38 0l-1.19-.68c-.09-.06-.08-.16 0-.22l1.14-.66a.42.42 0 0 1 .38 0m-1.69-.93 1.19.69c.1.05.08.15 0 .22l-1.13.65a.43.43 0 0 1-.38 0l-1.19-.69c-.1-.06-.09-.15 0-.22l1.14-.65a.4.4 0 0 1 .38 0m-1.7-1 1.19.68c.1.06.09.16 0 .22l-1.13.66a.42.42 0 0 1-.38 0l-1.19-.68c-.1-.06-.09-.16 0-.22l1.13-.66a.42.42 0 0 1 .38 0m-1.69-1 1.19.69c.1.06.09.15 0 .22l-1.14.65a.4.4 0 0 1-.38 0l-1.19-.69c-.1 0-.08-.15 0-.22l1.13-.65a.43.43 0 0 1 .38 0m-1.68-1 1.19.68c.1.06.09.16 0 .22l-1.14.66a.42.42 0 0 1-.38 0l-1.19-.68c-.09-.06-.08-.16 0-.22l1.12-.66a.4.4 0 0 1 .37 0m-1.65-.95 1.19.69c.09.06.08.15 0 .22l-1.14.65a.4.4 0 0 1-.38 0l-1.19-.69c-.09-.05-.08-.15 0-.22l1.14-.65a.43.43 0 0 1 .38 0m20.28 11.69 2 1.16c.1 0 .09.15 0 .21l-1.13.66a.46.46 0 0 1-.38 0l-2-1.16c-.1-.06-.09-.15 0-.22l1.14-.65a.4.4 0 0 1 .38 0M35.38 69.64l1.19.69a.36.36 0 0 0 .35 0l1.2-.69c.1-.06.1-.15 0-.21h-.1a.1.1 0 0 1 0-.19l1.27-.73c.1-.06.1-.15 0-.21l-.75-.44a.41.41 0 0 0-.36 0l-1.18.68-.25.14-.18.11-.17.1-1 .59c-.1.06-.1.15 0 .2m29.14 9.34 1.19.68c.1.06.09.16 0 .22l-1.14.66a.42.42 0 0 1-.38 0l-1.19-.68c-.1-.06-.08-.16 0-.22l1.13-.66a.42.42 0 0 1 .38 0m-1.65-.97 1.19.68c.1.06.09.16 0 .22l-1.19.69a.42.42 0 0 1-.38 0l-1.19-.68c-.1-.06-.08-.16 0-.22l1.13-.66a.42.42 0 0 1 .38 0m-1.64-1 1.19.68c.1.06.09.16 0 .22l-1.14.66a.42.42 0 0 1-.38 0l-1.19-.68c-.1-.06-.08-.16 0-.22l1.13-.66a.42.42 0 0 1 .38 0m-14.29-8.27 1.19.69c.1.06.09.15 0 .22l-1.14.66a.42.42 0 0 1-.38 0l-1.19-.69c-.1-.05-.08-.15 0-.22l1.13-.65a.43.43 0 0 1 .38 0m-1.68-.98 1.19.69c.1.06.09.15 0 .22l-1.14.66a.42.42 0 0 1-.38 0l-1.19-.69c-.1-.05-.08-.15 0-.21l1.13-.66a.43.43 0 0 1 .38 0m-1.67-.98 1.19.69c.1.06.09.15 0 .22l-1.14.66a.42.42 0 0 1-.38 0l-1.19-.69c-.1-.05-.08-.15 0-.22l1.13-.65a.43.43 0 0 1 .38 0m-1.62-.98 1.19.69c.1.06.09.15 0 .22l-1.14.66a.42.42 0 0 1-.38 0l-1.19-.69c-.1-.05-.08-.15 0-.22l1.13-.65a.43.43 0 0 1 .38 0m17.2 9.94 1.62.94c.1.06.09.16 0 .22l-1.14.66a.42.42 0 0 1-.38 0l-1.62-.94c-.1 0-.09-.15 0-.21l1.14-.66a.46.46 0 0 1 .38 0m-10.52-6.08 1.63.94c.09.06.08.15 0 .22l-1.14.66a.42.42 0 0 1-.38 0l-1.65-.96c-.1-.05-.08-.15 0-.22l1.13-.65a.43.43 0 0 1 .38 0M50.67 71l7.91 4.57c.1.06.09.16 0 .22l-1.13.66a.42.42 0 0 1-.38 0l-7.91-4.57c-.1-.05-.09-.15 0-.22l1.14-.65a.43.43 0 0 1 .38 0m7.65 8.19 1.19.68c.09.06.08.16 0 .22l-1.14.66a.46.46 0 0 1-.38 0l-1.19-.69c-.09-.06-.08-.16 0-.22l1.14-.66a.42.42 0 0 1 .38 0m-1.69-.96 1.19.68c.1.06.09.16 0 .22l-1.14.66a.42.42 0 0 1-.38 0l-1.19-.68c-.1-.06-.08-.16 0-.22l1.13-.66a.42.42 0 0 1 .38 0m-1.67-.98 1.19.69c.1.06.08.15 0 .22l-1.13.66a.42.42 0 0 1-.38 0l-1.19-.69c-.1-.05-.09-.15 0-.22l1.14-.65a.43.43 0 0 1 .38 0m-1.69-.98 1.19.69c.09.06.08.15 0 .22l-1.14.65a.4.4 0 0 1-.38 0l-1.19-.69c-.09-.05-.08-.15 0-.22l1.14-.65a.43.43 0 0 1 .38 0m-1.69-.97 1.19.69c.1 0 .09.15 0 .22l-1.14.65a.43.43 0 0 1-.38 0l-1.19-.69c-.1-.06-.08-.15 0-.22l1.13-.65a.4.4 0 0 1 .38 0m-1.7-.97 1.19.69c.1.05.08.15 0 .21l-1.13.66a.46.46 0 0 1-.38 0l-1.19-.69c-.1-.06-.09-.16 0-.22l1.14-.66a.42.42 0 0 1 .38 0m-1.66-.96 1.19.68c.09.06.08.16 0 .22l-1.14.66a.42.42 0 0 1-.38 0l-1.19-.68c-.09-.06-.08-.16 0-.22l1.14-.66a.42.42 0 0 1 .38 0m-1.69-.98 1.19.69c.1.06.09.16 0 .22l-1.14.66a.42.42 0 0 1-.38 0l-1.19-.69c-.1 0-.08-.15 0-.21l1.13-.66a.46.46 0 0 1 .38 0m-1.65-.98 1.19.69c.1.06.09.15 0 .22l-1.13.65a.4.4 0 0 1-.38 0l-1.19-.69c-.1 0-.09-.15 0-.22l1.13-.65a.43.43 0 0 1 .38 0m-1.7-.97 1.19.69c.09.05.08.15 0 .22l-1.14.65a.4.4 0 0 1-.38 0l-1.19-.69c-.09 0-.08-.15 0-.22l1.14-.65a.43.43 0 0 1 .38 0m-1.69-.97 1.19.69c.1.05.09.15 0 .22l-1.14.65a.43.43 0 0 1-.38 0l-1.19-.69c-.1-.06-.08-.15 0-.22l1.13-.65a.4.4 0 0 1 .38 0"/><path d="m39.81 68.51 1.19.68c.1.06.09.16 0 .22l-1.13.66a.42.42 0 0 1-.38 0l-1.19-.68c-.1-.06-.09-.16 0-.22l1.13-.66a.42.42 0 0 1 .38 0m20.2 11.66 2.46 1.47c.1.06.09.15 0 .22l-1.13.65a.4.4 0 0 1-.38 0l-2.46-1.42c-.1-.06-.09-.16 0-.22l1.14-.66a.42.42 0 0 1 .38 0m.77-1.47 1.19.68c.1.06.09.16 0 .22l-1.14.66a.42.42 0 0 1-.38 0l-1.21-.66c-.09-.06-.08-.16 0-.22l1.14-.66a.4.4 0 0 1 .37 0m-1.65-.99 1.19.68c.1.06.09.16 0 .22l-1.13.66a.42.42 0 0 1-.38 0l-1.22-.69c-.1-.06-.09-.16 0-.22l1.13-.66a.42.42 0 0 1 .38 0m-1.65-.97 1.19.69c.1.06.08.15 0 .22l-1.13.66a.42.42 0 0 1-.38 0l-1.23-.72c-.1 0-.09-.15 0-.22l1.14-.65a.43.43 0 0 1 .38 0m-1.65-.95 1.19.69c.09 0 .08.15 0 .22l-1.14.65a.4.4 0 0 1-.38 0l-1.19-.69c-.09 0-.08-.15 0-.22l1.14-.65a.43.43 0 0 1 .38 0m-1.69-.97 1.19.69c.1 0 .09.15 0 .22l-1.14.65a.43.43 0 0 1-.38 0l-1.19-.69c-.1-.06-.08-.15 0-.22l1.13-.65a.4.4 0 0 1 .38 0m-1.67-.97 1.19.69c.1 0 .08.15 0 .21l-1.13.66a.46.46 0 0 1-.38 0l-1.18-.67c-.1-.06-.09-.16 0-.22l1.14-.66a.42.42 0 0 1 .38 0m-1.7-.98 1.18.73c.09.06.08.16 0 .22l-1.14.66a.42.42 0 0 1-.38 0l-1.19-.68c-.09-.06-.08-.16 0-.22l1.14-.66a.42.42 0 0 1 .38 0m-1.68-1.02 1.19.68c.1.06.09.16 0 .22l-1.14.66a.42.42 0 0 1-.38 0l-1.19-.68c-.09-.06-.08-.16 0-.22l1.14-.66a.4.4 0 0 1 .37 0m-1.67-.98 1.19.69c.1.06.09.15 0 .22l-1.13.66a.42.42 0 0 1-.38 0l-1.19-.69c-.1-.05-.09-.15 0-.22l1.13-.65a.43.43 0 0 1 .38 0m-1.68-.98 1.23.65c.1.06.08.15 0 .22l-1.13.65a.4.4 0 0 1-.38 0l-1.19-.69c-.1-.05-.09-.15 0-.22l1.14-.65a.43.43 0 0 1 .38 0m-1.73-.93 1.19.69c.09.05.08.15 0 .22l-1.14.65a.43.43 0 0 1-.38 0l-1.19-.69c-.09-.06-.08-.15 0-.22l1.14-.65a.4.4 0 0 1 .38 0m-3.77-2.17 3.27 1.89c.1.05.09.15 0 .22l-1.14.65a.43.43 0 0 1-.38 0l-3.27-1.89c-.1-.06-.09-.16 0-.22l1.14-.66a.42.42 0 0 1 .38 0m22.28 12.87 1.62.94c.1.05.09.15 0 .21l-1.13.66a.46.46 0 0 1-.38 0l-1.65-.88c-.1-.06-.09-.16 0-.22l1.14-.66a.42.42 0 0 1 .38 0m-28.85-9.12 23.9 13.8c.1.06.09.15 0 .22l-.57.33a.4.4 0 0 1-.37 0l-23.91-13.8c-.09 0-.08-.15 0-.22l.57-.32a.43.43 0 0 1 .38 0"/></g><path fill="#bfbfbf" d="m61.88 71.55-.15.09-4.12 2.38-7.32-4.23-.15-.08 4.27-2.47 7.47 4.31z"/><g class="U"><path d="m61.72 71.64-4.11 2.38-7.32-4.23 4.12-2.37 7.31 4.22zm11.9 5.46v.37a1.5 1.5 0 0 1-.75 1.3l-14.5 8.37a1.53 1.53 0 0 1-1.51 0L30.62 71.99a1.49 1.49 0 0 1-.75-1.3v-.37l27.74 16z"/><path d="M57.61 86.35v1a1.58 1.58 0 0 1-.75-.19L30.62 71.99a1.5 1.5 0 0 1-.76-1.3v-.37z"/></g><path d="M57.19 86.57a1.79 1.79 0 0 1-1.53-.12L29.53 71.36a1.8 1.8 0 0 1-.87-1.24L25.8 53.06a1.46 1.46 0 0 1 0-.29 1.8 1.8 0 0 1 .52-1.27l27.16 15.68a1.35 1.35 0 0 1 .64.92z" class="S"/><path d="m57.61 86.35-.18.1-.24.12L54.1 68.1a1.35 1.35 0 0 0-.64-.92L26.3 51.5a1.88 1.88 0 0 1 .36-.27l27.22 15.71a1.31 1.31 0 0 1 .64.92z" class="U"/></g></svg>