<svg xmlns="http://www.w3.org/2000/svg" data-name="Layer 1" width="810.131" height="599.609"><path d="m236.396 59 8.563 13.383 30.548-15.144 15.706-4.802a12.192 12.192 0 0 0 4.805-20.524 12.192 12.192 0 0 0-16.946.2l-13.18 13.046Z" fill="#a0616a"/><path d="M250.847 71.76 239.43 53.916 196.141 72.96a19.71 19.71 0 0 0-11.61 15.521 19.71 19.71 0 0 0 11.243 20.395l69.008 31.033a20.12 20.12 0 0 0 26.513-9.332 20.12 20.12 0 0 0-11.113-27.805l-51.765-17.92Z" fill="#470ba9"/><path d="M707.724 374.684c0-5.36-1.8-9.71-4.01-9.72h-602.49c-2.22.01-4.01 4.36-4.02 9.72v220.643a2.003 2.003 0 0 1-1.81 1.994q-2.425.233-4.85.434c-.04 0-.08.01-.12.01-.88.08-1.76.14-2.64.21h-.01q-.68-1.256-1.343-2.533a2.011 2.011 0 0 1-.227-.93V362.076c0-1.48.06-2.97.16-4.44a56.885 56.885 0 0 1 .75-6.02c1.69-9.29 5.51-15.58 9.85-15.6h611a4.683 4.683 0 0 1 1.84.39 7.174 7.174 0 0 1 2.27 1.59 14.07 14.07 0 0 1 2.23 3.05c2.14 3.77 3.67 9.39 4.21 15.93 0 .06.01.12.01.18.14 1.62.21 3.27.2 4.92l.14 21.43.09 12.78.27 40.1.1 14.24.44 146.2a2 2 0 0 1-2 2h-8.04a2 2 0 0 1-2-2Z" fill="#e6e6e6"/><path fill="#a0616a" d="m101.479 483.961-12.963-2.328 2.81-51.11 19.133 3.436-8.98 50.002z"/><path d="m99.507 497.566-39.864-7.158.091-.504a15.765 15.765 0 0 1 18.302-12.73l8.274-4.218 12.595 7.965 3.48.624Z" fill="#2f2e41"/><path d="M415.873 430.015h-79.49a8.044 8.044 0 0 1-8.034-8.035v-72.73a8.044 8.044 0 0 1 8.035-8.035h79.49a8.044 8.044 0 0 1 8.034 8.036v72.729a8.044 8.044 0 0 1-8.035 8.035Z" fill="#3f3d56"/><path d="M410.286 423.318H341.97a7.142 7.142 0 0 1-7.134-7.134v-61.137a7.142 7.142 0 0 1 7.134-7.135h68.315a7.142 7.142 0 0 1 7.134 7.135v61.137a7.142 7.142 0 0 1-7.134 7.134Z" fill="#fff"/><path d="M403.47 365.712h-54.684a1.783 1.783 0 1 1 0-3.567h54.685a1.783 1.783 0 1 1 0 3.567ZM403.47 372.759h-54.684a1.784 1.784 0 0 1 0-3.567h54.685a1.784 1.784 0 0 1 0 3.567ZM372.49 379.806h-23.704a1.784 1.784 0 0 1 0-3.567h23.704a1.784 1.784 0 0 1 0 3.567Z" fill="#470ba9"/><path d="M403.47 394.566h-54.684a1.783 1.783 0 1 1 0-3.567h54.685a1.783 1.783 0 1 1 0 3.567ZM403.47 401.613h-54.684a1.784 1.784 0 1 1 0-3.567h54.685a1.784 1.784 0 1 1 0 3.567ZM372.49 408.66h-23.704a1.784 1.784 0 0 1 0-3.567h23.704a1.784 1.784 0 0 1 0 3.568Z" fill="#e4e4e4"/><path d="M544.008 235.739h-64.92a3.464 3.464 0 0 0-3.458 3.467V341.76h71.845V239.206a3.466 3.466 0 0 0-3.467-3.467Zm-32.242 58.27a7.702 7.702 0 0 1-7.665-7.666v-11.83a7.666 7.666 0 0 1 15.331 0v11.83a7.702 7.702 0 0 1-7.666 7.665Z" fill="#2f2e41"/><path d="M475.407 338.48v9.894a1.938 1.938 0 0 0 1.934 1.934h68.423a1.944 1.944 0 0 0 1.934-1.934v-9.895ZM651.508 75.693H374.003a9.008 9.008 0 0 0-8.994 8.994v187.261a9.003 9.003 0 0 0 8.994 8.994h277.505a9.003 9.003 0 0 0 8.994-8.994V84.687a9.008 9.008 0 0 0-8.994-8.994Z" fill="#3f3d56"/><path d="M649.192 82.189h-272.87a4.82 4.82 0 0 0-4.81 4.82v182.62a4.818 4.818 0 0 0 4.81 4.81h272.87a4.818 4.818 0 0 0 4.81-4.81V87.009a4.82 4.82 0 0 0-4.81-4.82Z" fill="#fff"/><path d="M596.041 353.751H433.7a2.986 2.986 0 0 1-2.923-3.601l2.52-11.964a3 3 0 0 1 2.921-2.371h157.306a3 3 0 0 1 2.922 2.37l2.519 11.964a2.986 2.986 0 0 1-2.923 3.602Z" fill="#2f2e41"/><rect x="437.37" y="337.969" width="5" height="3" rx=".488" fill="#3f3d56"/><rect x="447.37" y="337.969" width="5" height="3" rx=".488" fill="#3f3d56"/><rect x="457.37" y="337.969" width="5" height="3" rx=".488" fill="#3f3d56"/><rect x="467.37" y="337.969" width="5" height="3" rx=".488" fill="#3f3d56"/><rect x="477.37" y="337.969" width="5" height="3" rx=".488" fill="#3f3d56"/><rect x="487.37" y="337.969" width="5" height="3" rx=".488" fill="#3f3d56"/><rect x="497.37" y="337.969" width="5" height="3" rx=".488" fill="#3f3d56"/><rect x="507.37" y="337.969" width="5" height="3" rx=".488" fill="#3f3d56"/><rect x="517.37" y="337.969" width="5" height="3" rx=".488" fill="#3f3d56"/><rect x="527.37" y="337.969" width="5" height="3" rx=".488" fill="#3f3d56"/><rect x="537.37" y="337.969" width="5" height="3" rx=".488" fill="#3f3d56"/><rect x="547.37" y="337.969" width="5" height="3" rx=".488" fill="#3f3d56"/><rect x="557.37" y="337.969" width="5" height="3" rx=".488" fill="#3f3d56"/><rect x="567.37" y="337.969" width="5" height="3" rx=".488" fill="#3f3d56"/><rect x="577.37" y="337.969" width="5" height="3" rx=".488" fill="#3f3d56"/><rect x="587.37" y="337.969" width="5" height="3" rx=".488" fill="#3f3d56"/><rect x="437.252" y="342.969" width="5" height="3" rx=".488" fill="#3f3d56"/><rect x="447.252" y="342.969" width="5" height="3" rx=".488" fill="#3f3d56"/><rect x="457.252" y="342.969" width="5" height="3" rx=".488" fill="#3f3d56"/><rect x="467.252" y="342.969" width="5" height="3" rx=".488" fill="#3f3d56"/><rect x="477.252" y="342.969" width="5" height="3" rx=".488" fill="#3f3d56"/><rect x="487.252" y="342.969" width="5" height="3" rx=".488" fill="#3f3d56"/><rect x="497.252" y="342.969" width="5" height="3" rx=".488" fill="#3f3d56"/><rect x="507.252" y="342.969" width="5" height="3" rx=".488" fill="#3f3d56"/><rect x="517.252" y="342.969" width="5" height="3" rx=".488" fill="#3f3d56"/><rect x="527.252" y="342.969" width="5" height="3" rx=".488" fill="#3f3d56"/><rect x="537.252" y="342.969" width="5" height="3" rx=".488" fill="#3f3d56"/><rect x="547.252" y="342.969" width="5" height="3" rx=".488" fill="#3f3d56"/><rect x="557.252" y="342.969" width="5" height="3" rx=".488" fill="#3f3d56"/><rect x="567.252" y="342.969" width="5" height="3" rx=".488" fill="#3f3d56"/><rect x="577.252" y="342.969" width="5" height="3" rx=".488" fill="#3f3d56"/><rect x="587.252" y="342.969" width="5" height="3" rx=".488" fill="#3f3d56"/><rect x="485.252" y="348.969" width="40" height="3" rx=".488" fill="#3f3d56"/><path d="m630.4 581.986-7.71-12.39-1.54 7.08c-.27 1.24-.54 2.5-.79 3.75-2.19-1.87-4.52-3.6-6.8-5.26q-10.5-7.62-20.99-15.26l2.19 12.7c1.35 7.82 2.76 15.8 6.1 22.95.37.81.77 1.61 1.2 2.39h32.54a10.487 10.487 0 0 0 .54-2.24.775.775 0 0 0 .01-.15c.51-4.85-2.17-9.42-4.75-13.57ZM190.4 581.986l-7.71-12.39-1.54 7.08c-.27 1.24-.54 2.5-.79 3.75-2.19-1.87-4.52-3.6-6.8-5.26q-10.5-7.62-20.99-15.26l2.19 12.7c1.35 7.82 2.76 15.8 6.1 22.95.37.81.77 1.61 1.2 2.39h32.54a10.487 10.487 0 0 0 .54-2.24.775.775 0 0 0 .01-.15c.51-4.85-2.17-9.42-4.75-13.57Z" fill="#f0f0f0"/><path d="m808.94 599.301-275.75.308a1.19 1.19 0 0 1 0-2.382l275.75-.307a1.19 1.19 0 1 1 0 2.381ZM635.475 107.35H380.152a1.016 1.016 0 0 1 0-2.03h255.323a1.016 1.016 0 0 1 0 2.03Z" fill="#cacaca"/><ellipse cx="397.532" cy="94.052" rx="5.95" ry="6.083" fill="#3f3d56"/><ellipse cx="418.088" cy="94.052" rx="5.95" ry="6.083" fill="#3f3d56"/><ellipse cx="438.644" cy="94.052" rx="5.95" ry="6.083" fill="#3f3d56"/><path d="M623.099 89.477h-14.602a1.106 1.106 0 0 0 0 2.21h14.602a1.106 1.106 0 0 0 0-2.21ZM623.099 93.627h-14.602a1.106 1.106 0 0 0 0 2.211h14.602a1.106 1.106 0 0 0 0-2.211ZM623.099 97.772h-14.602a1.106 1.106 0 0 0 0 2.21h14.602a1.106 1.106 0 0 0 0-2.21Z" fill="#3f3d56"/><rect x="492.185" y="162.668" width="40.582" height="8.678" rx="4.339" fill="#470ba9"/><rect x="471.575" y="180.024" width="81.802" height="8.678" rx="4.339" fill="#e6e6e6"/><rect x="471.575" y="197.379" width="81.802" height="8.678" rx="4.339" fill="#e6e6e6"/><path d="M406.252 263.969a29.815 29.815 0 0 1-1.88 10.47h-28.05a4.818 4.818 0 0 1-4.81-4.81v-35.28a29.628 29.628 0 0 1 4.74-.38 29.998 29.998 0 0 1 30 30Z" fill="#e6e6e6"/><path d="M350.908 291.862c-.42 12.15-26.26 44.93-39.85 49.63-2.31.8-3.66 1.24-3.66 1.24l-4.73-1.43-57.28-17.33c-10.03 5.9-39.95 8.9-64.5 10.4-19.54 1.19-35.69 1.43-35.69 1.43-5.764 43.841-17.125 85.778-36.29 125.06l-23-4 21.729-146.32a16.3 16.3 0 0 1 11.998-13.375l156.303-40.885s8.62-1.56 26.8 7.21c29.93 14.44 48.47 19.53 48.17 28.37Z" fill="#2f2e41"/><path fill="#a0616a" d="m297.161 567.951-11.68 6.085-29.032-42.157 17.24-8.982 23.472 45.054z"/><path d="m303.922 579.922-35.919 18.714-.236-.454a15.765 15.765 0 0 1 6.695-21.265h.001l3.967-8.397 14.836-1.4 3.135-1.634ZM321.042 289.511c5.242 10.97-2.527 51.98-12.407 62.428l-2.622 1.784-.887.462c-5.927 20.048-69.53 78.684-69.53 78.684 21.484 27.368 34.874 61.017 43.417 98.427l-19.086 8.817-69.926-104.39a16.3 16.3 0 0 1 .202-18.437l28.527-40.635 46.483-90.04c33.216-1.024 52.01-5.078 55.829 2.9Z" fill="#2f2e41"/><path d="M349.301 296.13c-100.393-15.268-109.54-28.998-110.521-28.753l-.872.216 14.545-24.584 5.335-6.302-4.103-2.933 1.628-12.184c1.27-4.935 2.298-10.748 1.75-11.527-1.132-1.252-3.65-3.53-3.675-3.553l-.324-.292 3.78-8.822 5.064-70.534 13.055-26.026 26.945-15.974 23.75.288 20.872 19.359a44.674 44.674 0 0 1 24.534 48.538l-10.602 55.999-3.9 28.863 6.364 6.363-3.96 3.96-2.354 13.484 2.411 15.27c1.885 13.876-6.496 14.703-7.115 14.876-.037.01-1.857 4.777-1.934 4.777-.193 0-.21-.44-.673-.51Z" fill="#470ba9"/><path d="M344.03 351.804a10.962 10.962 0 0 0-1.285-16.76l11.013-37.366-19.36 5.912-7.49 34.578a11.022 11.022 0 0 0 17.123 13.636Z" fill="#a0616a"/><path d="m345.818 325.877-20.927-9.387 16.787-69.71-31.262-75.886a27.638 27.638 0 0 1 19.87-37.574 27.667 27.667 0 0 1 32.73 21.363l19.013 90.467Z" fill="#470ba9"/><path d="m263.188 59.594 7.65-31.814a4.227 4.227 0 0 1 5.092-3.118l6.934 1.667a4.227 4.227 0 0 1 3.118 5.093l-7.65 31.813a4.227 4.227 0 0 1-5.092 3.118l-6.933-1.667a4.227 4.227 0 0 1-3.119-5.092Z" fill="#3f3d56"/><path d="M276.352 26.48a2.278 2.278 0 0 0-2.745 1.68l-7.65 31.814a2.278 2.278 0 0 0 1.681 2.744l6.934 1.667a2.278 2.278 0 0 0 2.744-1.68l7.65-31.814a2.278 2.278 0 0 0-1.68-2.744Z" fill="#470ba9"/><circle cx="308.432" cy="45.699" r="33.958" fill="#a0616a"/><path d="m324.095 68.404 1.222-6.878a20.91 20.91 0 0 0-12.112-22.495l-1.049-.508.864-.462a1.334 1.334 0 0 0-.794-2.5l-.982.122a3.494 3.494 0 0 1-3.296-5.458 30.328 30.328 0 0 1-10.675 2.295c-5.308-.04-9.92-2.628-11.75-6.592a9.513 9.513 0 0 1-.81-3.119c-5.607 2.21-8.63 8.833-8.661 8.902l-1.658 3.7.71-3.992c.02-.121 2.191-12.21 5.338-19.709C283.825 3.647 297.909-.603 319.066.07c20.666.649 25.25 24.211 25.644 26.49 5.87 5.65 3.738 16.345 1.932 22.244-2.924 9.553-8.695 19.06-11.875 19.56a1.467 1.467 0 0 1-1.497-.638 4.222 4.222 0 0 0-2.89-1.918c-2.569-.365-5.22 1.741-5.247 1.762Z" fill="#2f2e41"/><path d="m276.94 599.301-275.75.308a1.19 1.19 0 0 1 0-2.382l275.75-.307a1.19 1.19 0 1 1 0 2.381Z" fill="#cacaca"/></svg>