<svg xmlns="http://www.w3.org/2000/svg" xmlns:xlink="http://www.w3.org/1999/xlink" width="786.82" height="572.258"><g fill="#f2f2f2"><circle cx="458.321" cy="74.182" r="26.701"/><path d="M665.448 497.152c39.688-30.229 58.644-81.025 46.776-129.482q-.442-1.806-.934-3.604c-7.867-28.763-27.332-56.101-55.7-65.291-23.82-7.717-49.82-1.783-74.669-4.851-48.781-6.024-86.601-45.494-113.211-86.819S420.648 119.52 385.288 85.38c-58.285-56.275-153.362-68.391-225.627-31.76S41.365 171.519 43.328 252.514s50.046 158.432 119.875 199.517c25.652 15.093 55.321 25.785 84.848 22.044 25.62-3.246 48.899-17.013 74.399-21.1 40.091-6.426 79.927 11.701 114.603 32.824s68.17 46.16 107.574 55.952c38.261 9.509 85.664-17.822 120.821-44.6z"/></g><g fill="#3f3d56"><path d="m608.426 55.32-2.62-1.69a380.24 380.24 0 0 0-80.31-38.93l-6.54 90.22h-41.46V1.53L469.626 0v104.92h-49.27c-56.482 0-102.27-45.788-102.27-102.27a264.59 264.59 0 0 0-7.88 1.83v100.44h-40.13l-6.23-86.03a380.86 380.86 0 0 0-81.94 43.53l-1.31.91-6.56 4.73v344.19h118.27l-2.09-28.95-11.5-158.95h231.59l-11.5 158.95-2.09 28.95h116.96V58.8q-2.61-1.77-5.25-3.48zM310.206 198.1h-33.39l-6.17-85.3h39.56zm159.42 0h-56.08v-1.69a6.18 6.18 0 0 0-6.19-6.18h-24.38a6.18 6.18 0 0 0-6.18 6.18v1.69h-58.71v-85.3h151.54zm7.87 0v-85.3h40.89l-6.17 85.3zM0 434.291a288.98 288.98 0 0 0 28.12 28.95l730.58 1a288.98 288.98 0 0 0 28.12-28.95z"/><path d="M495.43 341.591v85.704a4.123 4.123 0 0 0 4.119 4.119h127.004a4.123 4.123 0 0 0 4.119-4.119v-85.704a4.124 4.124 0 0 0-4.119-4.115H499.549a4.124 4.124 0 0 0-4.119 4.115z"/></g><path d="M498.409 342.658v83.58a2.204 2.204 0 0 0 2.201 2.201h124.885a2.204 2.204 0 0 0 2.201-2.201v-83.58a2.206 2.206 0 0 0-2.201-2.206H500.611a2.207 2.207 0 0 0-2.201 2.206z" fill="#6c63ff"/><path d="M492.774 444.01a2.47 2.47 0 0 0 1.943.93h135.992a2.5 2.5 0 0 0 2.446-3.016l-2.111-10.027a2.507 2.507 0 0 0-1.558-1.818 2.41 2.41 0 0 0-.888-.167H496.82c-.304 0-.605.057-.888.168a2.507 2.507 0 0 0-1.558 1.818l-2.111 10.027a2.5 2.5 0 0 0 .511 2.086z" fill="#2f2e41"/><g fill="#3f3d56"><rect x="830.034" y="595.588" width="4.188" height="2.513" rx=".488" transform="rotate(180 728.833 514.91)"/><rect x="821.657" y="595.588" width="4.188" height="2.513" rx=".488" transform="rotate(180 720.456 514.91)"/><rect x="813.28" y="595.588" width="4.188" height="2.513" rx=".488" transform="rotate(180 712.08 514.91)"/><rect x="804.903" y="595.588" width="4.188" height="2.513" rx=".488" transform="rotate(180 703.702 514.91)"/><rect x="796.526" y="595.588" width="4.188" height="2.513" rx=".488" transform="rotate(180 695.325 514.91)"/><rect x="788.149" y="595.588" width="4.188" height="2.513" rx=".488" transform="rotate(180 686.948 514.91)"/><rect x="779.772" y="595.588" width="4.188" height="2.513" rx=".488" transform="rotate(180 678.571 514.91)"/><rect x="771.395" y="595.588" width="4.188" height="2.513" rx=".488" transform="rotate(180 670.194 514.91)"/><rect x="763.018" y="595.588" width="4.188" height="2.513" rx=".488" transform="rotate(180 661.817 514.91)"/><rect x="754.641" y="595.588" width="4.188" height="2.513" rx=".488" transform="rotate(180 653.44 514.91)"/><rect x="746.264" y="595.588" width="4.188" height="2.513" rx=".488" transform="rotate(180 645.063 514.91)"/><rect x="737.887" y="595.588" width="4.188" height="2.513" rx=".488" transform="rotate(180 636.686 514.91)"/><rect x="729.51" y="595.588" width="4.188" height="2.513" rx=".488" transform="rotate(180 628.31 514.91)"/><rect x="721.133" y="595.588" width="4.188" height="2.513" rx=".488" transform="rotate(180 619.932 514.91)"/><rect x="712.756" y="595.588" width="4.188" height="2.513" rx=".488" transform="rotate(180 611.555 514.91)"/><rect x="704.379" y="595.588" width="4.188" height="2.513" rx=".488" transform="rotate(180 603.178 514.91)"/><rect x="830.133" y="599.777" width="4.188" height="2.513" rx=".488" transform="rotate(180 728.932 519.098)"/><rect x="821.756" y="599.777" width="4.188" height="2.513" rx=".488" transform="rotate(180 720.555 519.098)"/><rect x="813.379" y="599.777" width="4.188" height="2.513" rx=".488" transform="rotate(180 712.178 519.098)"/><rect x="805.002" y="599.777" width="4.188" height="2.513" rx=".488" transform="rotate(180 703.801 519.098)"/><rect x="796.625" y="599.777" width="4.188" height="2.513" rx=".488" transform="rotate(180 695.424 519.098)"/><rect x="788.248" y="599.777" width="4.188" height="2.513" rx=".488" transform="rotate(180 687.047 519.098)"/><rect x="779.871" y="599.777" width="4.188" height="2.513" rx=".488" transform="rotate(180 678.67 519.098)"/><rect x="771.494" y="599.777" width="4.188" height="2.513" rx=".488" transform="rotate(180 670.293 519.098)"/><rect x="763.117" y="599.777" width="4.188" height="2.513" rx=".488" transform="rotate(180 661.916 519.098)"/><rect x="754.74" y="599.777" width="4.188" height="2.513" rx=".488" transform="rotate(180 653.54 519.098)"/><rect x="746.363" y="599.777" width="4.188" height="2.513" rx=".488" transform="rotate(180 645.162 519.098)"/><rect x="737.986" y="599.777" width="4.188" height="2.513" rx=".488" transform="rotate(180 636.785 519.098)"/><rect x="729.609" y="599.777" width="4.188" height="2.513" rx=".488" transform="rotate(180 628.408 519.098)"/><rect x="721.232" y="599.777" width="4.188" height="2.513" rx=".488" transform="rotate(180 620.031 519.098)"/><rect x="712.855" y="599.777" width="4.188" height="2.513" rx=".488" transform="rotate(180 611.654 519.098)"/><rect x="704.478" y="599.777" width="4.188" height="2.513" rx=".488" transform="rotate(180 603.277 519.098)"/><rect x="760.604" y="604.803" width="33.508" height="2.513" rx=".488" transform="rotate(180 674.063 524.124)"/></g><g fill="#fff"><rect x="515.631" y="358.737" width="5.966" height="3.122" rx="1.561"/><rect x="548.154" y="358.737" width="5.966" height="3.122" rx="1.561"/><rect x="557.369" y="358.737" width="5.966" height="3.122" rx="1.561"/><rect x="524.477" y="358.477" width="20.796" height="3.122" rx="1.561"/><rect x="567.841" y="358.477" width="20.796" height="3.122" rx="1.561"/><rect x="524.304" y="365.784" width="5.966" height="3.122" rx="1.561"/><rect x="556.827" y="365.784" width="5.966" height="3.122" rx="1.561"/><rect x="566.042" y="365.784" width="5.966" height="3.122" rx="1.561"/><rect x="533.15" y="365.523" width="20.796" height="3.122" rx="1.561"/><rect x="576.514" y="365.523" width="20.796" height="3.122" rx="1.561"/><rect x="532.977" y="372.83" width="5.966" height="3.122" rx="1.561"/><rect x="565.5" y="372.83" width="5.966" height="3.122" rx="1.561"/><rect x="574.715" y="372.83" width="5.966" height="3.122" rx="1.561"/><rect x="541.823" y="372.57" width="20.796" height="3.122" rx="1.561"/><rect x="585.187" y="372.57" width="20.796" height="3.122" rx="1.561"/><rect x="541.649" y="379.877" width="5.966" height="3.122" rx="1.561"/><rect x="574.172" y="379.877" width="5.966" height="3.122" rx="1.561"/><rect x="583.387" y="379.877" width="5.966" height="3.122" rx="1.561"/><rect x="550.496" y="379.617" width="20.796" height="3.122" rx="1.561"/><rect x="548.154" y="407.898" width="5.966" height="3.122" rx="1.561"/><rect x="557.369" y="407.898" width="5.966" height="3.122" rx="1.561"/><rect x="567.841" y="408.158" width="20.796" height="3.122" rx="1.561"/><rect x="515.631" y="407.898" width="5.966" height="3.122" rx="1.561"/><rect x="524.477" y="408.158" width="20.796" height="3.122" rx="1.561"/><rect x="524.304" y="400.851" width="5.966" height="3.122" rx="1.561"/><rect x="556.827" y="400.851" width="5.966" height="3.122" rx="1.561"/><rect x="566.042" y="400.851" width="5.966" height="3.122" rx="1.561"/><rect x="533.15" y="401.111" width="20.796" height="3.122" rx="1.561"/><rect x="532.977" y="393.804" width="5.966" height="3.122" rx="1.561"/><rect x="565.5" y="393.804" width="5.966" height="3.122" rx="1.561"/><rect x="574.715" y="393.804" width="5.966" height="3.122" rx="1.561"/><rect x="541.823" y="394.064" width="20.796" height="3.122" rx="1.561"/><rect x="541.649" y="386.758" width="5.966" height="3.122" rx="1.561"/><rect x="574.172" y="386.758" width="5.966" height="3.122" rx="1.561"/><rect x="583.387" y="386.758" width="5.966" height="3.122" rx="1.561"/><rect x="550.496" y="387.018" width="20.796" height="3.122" rx="1.561"/></g><path d="m504.917 490.482-13.35-21.102 41.902-33.403 17.295-19.161a19.16 19.16 0 0 1 32.418 6.828c3.241 9.808-1.877 20.42-11.57 23.991l-27.349 10.075z" fill="#ffb6b6"/><path d="M191.69 337.481v102.56h71.85v-102.56a3.45 3.45 0 0 0-2.43-3.3 3.16 3.16 0 0 0-1.03-.16h-64.92a3.463 3.463 0 0 0-3.47 3.46zm28.04 35.24a7.67 7.67 0 0 1 15.34 0v11.9a7.67 7.67 0 0 1-15.34 0z" fill="#2f2e41"/><path d="M191.47 436.761v9.89a1.946 1.946 0 0 0 1.93 1.94h68.43a1.94 1.94 0 0 0 1.93-1.94v-9.89zm-112.81-253.8v187.26a9.01 9.01 0 0 0 9 9h277.5a9.01 9.01 0 0 0 9-9v-187.26a9.011 9.011 0 0 0-9-8.99H87.66a9.011 9.011 0 0 0-9 8.99z" fill="#3f3d56"/><path d="M85.17 185.291v182.62a4.82 4.82 0 0 0 4.81 4.81h272.87a4.82 4.82 0 0 0 4.81-4.81v-182.62a4.82 4.82 0 0 0-4.81-4.82H89.98a4.82 4.82 0 0 0-4.81 4.82z" fill="#fff"/><path d="M135.81 447.921a2.95 2.95 0 0 0 2.32 1.11h162.34a2.986 2.986 0 0 0 2.92-3.6l-2.52-11.97a2.99 2.99 0 0 0-1.86-2.17 2.912 2.912 0 0 0-1.06-.2H140.64c-.363 0-.722.067-1.06.2a2.99 2.99 0 0 0-1.86 2.17l-2.52 11.97c-.182.88.042 1.794.61 2.49z" fill="#2f2e41"/><g fill="#3f3d56"><path d="M353.994 205.628H98.671a1.015 1.015 0 0 1 0-2.03h255.323a1.015 1.015 0 0 1 0 2.03z"/><ellipse cx="116.051" cy="192.33" rx="5.95" ry="6.083"/><ellipse cx="136.607" cy="192.33" rx="5.95" ry="6.083"/><ellipse cx="157.163" cy="192.33" rx="5.95" ry="6.083"/><use xlink:href="#a"/><path d="M341.616 191.901h-14.6a1.105 1.105 0 0 0 0 2.21h14.6a1.105 1.105 0 0 0 0-2.21z"/><use xlink:href="#a" y="8.3"/></g><path d="M693.596 441.101a6.416 6.416 0 0 0 6.183 4.331l26.492-.682a6.33 6.33 0 0 0 5.981-4.657L736 400.006c1.33.603 2.778.9 4.238.871 5.334-.134 9.55-4.567 9.416-9.901s-4.567-9.55-9.901-9.416a8.161 8.161 0 0 0-1.736.181 6.55 6.55 0 0 0-4.874-2.103l-40.751 1.052a5.766 5.766 0 0 0-1.005.125 6.365 6.365 0 0 0-4.873 8.265zm43.173-43.817 2.668-9.553a6.514 6.514 0 0 0 .02-3.375c.129 0 .244-.062.373-.062a6.91 6.91 0 1 1 .324 13.817 6.504 6.504 0 0 1-3.385-.828z" fill="#2f2e41"/><path d="M691.387 380.815c.868 4.964 10.629 8.454 22.366 7.847 10.793-.497 19.617-4.287 21.234-8.779a6.025 6.025 0 0 0-1.844-.246l-40.751 1.052a5.766 5.766 0 0 0-1.005.125z" fill="#3f3d56"/><g fill="#6c63ff"><path d="M715.904 419.073a.51.51 0 0 0 .151-.066l5.753-3.766a.5.5 0 0 0 0-.836l-5.98-3.917a.5.5 0 0 0-.775.389.5.5 0 0 0 .227.447l5.341 3.498-5.114 3.348a.5.5 0 0 0 .396.903zm-9.086.419a.5.5 0 0 0 .126-.918l-5.303-3.04 5.126-3.807a.5.5 0 0 0-.1-.86.5.5 0 0 0-.496.058l-5.739 4.263a.5.5 0 0 0 .049.835l5.965 3.42a.5.5 0 0 0 .372.051zm8.514 2.881a.48.48 0 0 0 .137-.058.5.5 0 0 0 .168-.687l-8.155-13.408a.5.5 0 1 0-.854.521l8.155 13.408a.5.5 0 0 0 .55.224z"/><rect x="209.385" y="260.827" width="50.719" height="10.846" rx="3.264"/></g><g fill="#e6e6e6"><rect x="183.626" y="282.519" width="102.236" height="10.846" rx="3.264"/><rect x="183.626" y="304.21" width="102.236" height="10.846" rx="3.264"/></g><g fill="#3f3d56"><path d="m290.711 376.846.217.684.011.023 6.525 19.838 7.506 22.861 14.123 42.961.137 6.673v.023l1.049 53.684-2.909 7.278 3.274 11.932s-1.506-18.037-9.582-7.679c-4.574 5.886-9.925 11.91-14.317 17.556q9.6 3.884 19.507 7.027l4.301 1.323.924.274a266.882 266.882 0 0 0 67.351 10.826l3.479.08 1.175.023 3.822.023q3.867 0 7.7-.114a266.852 266.852 0 0 0 56.091-7.586c-.125-7.586-.468-16.45-.958-25.918-.228-4.643-5.35-9.674-5.658-14.533-.217-3.65 4.381-7.084 4.141-10.792-1.551-22.827-3.491-14.064-4.928-30.229q-.222-2.379-.411-4.552l-1.563-16.872 6.137-38.683 9.639-60.734-.742-1.221-.833-.411-50.844-25.165-2.761-7.073a10.98 10.98 0 0 0-10.141-6.947l-33.493-.137a10.93 10.93 0 0 0-8.909 4.529l-9.069 12.56z"/><path d="m326.816 453.654-7.586 16.233-5.179 11.088-8.909 46.646-4.46 4.734-3.822-16.759-39.998 8.881c-1.312-7.29-.351.247-1.161-7.75l.707-.685c.639-.593 1.175-1.152 1.164-1.688-.456-27.584.913-74.526 12.343-102.966a60.066 60.066 0 0 1 7.027-13.107l.662-.924c5.27-7.381 8.601-14.647 13.324-19.815v-.011a.53.53 0 0 0 .08-.08.172.172 0 0 0 .046-.034l32.443-17.203 1.392 39.105.992 28.109zm116.985 4.61 9.476 20.275 3.307 7.061 8.907 46.642 4.446 4.723 3.83-16.755 1.8-.369 32.458-6.722 9.461 30.046a17.985 17.985 0 0 0-3.261-22.506c-.646-.585-1.184-1.154-1.169-1.692.538-32.443-1.446-91.684-19.367-116.066-5.692-7.738-9.107-15.445-14.076-20.829-.015-.015-.015-.031-.031-.031l-12.091-19.798-.738-1.215-.831-.415z"/></g><circle cx="386.397" cy="267.201" r="44.558" fill="#ffb6b6"/><path d="M446.622 236.077a3.76 3.76 0 0 0-2.69-1.19l.67-1.86a3.53 3.53 0 0 0-3.96-4.7l-2.44.47.23-1.63a3.534 3.534 0 0 0-4.73-3.82 3.767 3.767 0 0 1-3.24-.23 3.846 3.846 0 0 1-1.92-2.61l-.85-4.1-.09-.22c-4.14-6.9-12.1-11.92-21.84-13.76-8.67-1.65-17.56-.81-26.13-.02-3.4.32-7.24.68-10.44 2.64-2.72 1.68-5.02 5.04-4.55 8.43-8.45-2.59-17.51 2.58-22 9.1-5.32 7.76-6.19 17.48-6.33 25.08-.38 17.98 3.33 32.69 11 43.73.56.8.7 2.47 1.81 3.03l-.23-.37c1.24.62 2.5 1.62 2.03 2.69-1.35 3.08 7.62 9.89 13.94 12.14 11.53 4.11 26.86 3.76 37.64 2.28l.38-2.55c3.89-.53 6.63-1.54 7.4-3.12 1.36-1.16 2.52-2.2 3.53-3.16l.01-.01c.02-.02.06-.05.08-.07 4.87-4.67 6-7.33 6.51-11.38.49-3.97-.38-8-1.27-11.63 18.74 2.9-7.38-19.96 10.08-24.38a5.32 5.32 0 0 1 .61-.15c.51-.12 1.02-.24 1.51-.38a26.45 26.45 0 0 0 6.72-2.87c4.88-2.97 6.49-6.91 9.01-11.35a3.427 3.427 0 0 0-.45-4.03zm97.37 225.36-.11 7.23-.03 1.29-.47 15.43-.04 1.07-1.48 29.02c-1.41 24.66-3.87 3.39-6.34 12.04-.12.43-.25.94-.37 1.54a27.905 27.905 0 0 1-1.88 6.33c-1.31.78-2.66 1.53-3.99 2.28-3.79 2.11-7.64 4.14-11.52 6.07l-6.57 3.16-1.03.47a270.97 270.97 0 0 1-34.75 13.26l-6.97 2.01c-2.44.68-4.88 1.32-7.35 1.92a266.913 266.913 0 0 1-56.09 7.59c-2.55.08-5.12.11-7.7.11-1.28 0-2.54-.01-3.82-.02a45.65 45.65 0 0 1-1.17-.02l-3.48-.08a266.693 266.693 0 0 1-67.35-10.83l-.93-.27-4.3-1.33q-9.9-3.135-19.51-7.02-7.335-2.955-14.5-6.34a.34.34 0 0 1-.12-.06l-3.01-1.43c-.13-.07-.27-.14-.41-.21q-5.595-2.73-11.07-5.72c-3.07-7.05-7.39-8.4-10.07-14.6a25.86 25.86 0 0 1-1.68-5.74c0-.02-.01-.04-.01-.07.28 3.72-1.19-6.6-.01-.04l-.03-.4-.13-1.35c-3.43-33.49-3.21-71.79-4.7-103.35q-.15-3.06-.31-5.86l-.11-1.83a6.55 6.55 0 0 1 .24-.55 1 1 0 0 1 .07-.15c.029-.062.063-.122.1-.18l.07-.1c.02-.03.031-.068.05-.1a5.59 5.59 0 0 1 .3-.43c.05-.06.09-.11.14-.16a.81.81 0 0 1 .12-.14c.031-.048.068-.092.11-.13s.08-.09.13-.14a.304.304 0 0 1 .08-.08 1.98 1.98 0 0 1 .26-.25 9.697 9.697 0 0 1 1.14-.9c.14-.09.29-.18.43-.28a19.11 19.11 0 0 1 3.17-1.52c.38-.14.76-.27 1.17-.41.15-.04.29-.09.44-.14.22-.07.44-.14.67-.19 1.14-.34 2.37-.63 3.7-.9.16-.03.33-.06.5-.1a16.25 16.25 0 0 1 .74-.13l1.04-.18c2.97-.47 6.34-.82 10.06-1.05l1.05-.06 1.24-.06c.35-.02.71-.03 1.07-.04a36.27 36.27 0 0 1 1.08-.04l3.11-.08c3.02-.06 6.2-.04 9.54.03l4.75.15c.11 0 .21.01.31.01l4.29.19 3.08.16 2.94.19 2.32.15 1.98.14.9.06 1.48.12 3.32.27 3.37.3 3.41.32.34.03 3.13.32c.24.02.49.04.73.07l3.032.326.929.1 2.368.254 3.16.37 2.43.28 3.85.48 1.47.19 11.18 1.5 17.41 2.64q8.805 1.425 17.71 3.01l4.51.82 2.04.39 3.48.65 3.48.67 4.15.81 26.95 5.73 4.34 1q4.32 1.005 8.56 2.04l2.32.56 5.73 1.45.33.09 4.11 1.05q4.815 1.26 9.47 2.55 3.09.855 6.11 1.73l8.83 2.64 2.12.65 6.18 1.97 4.7 1.58q2.31.795 4.53 1.59l2.83 1.04 3.98 1.5 1.18.46c.25.11.49.2.73.3l1.41.56c.47.18.93.37 1.39.57l1.35.56a31.27 31.27 0 0 1 1.33.57c.37.15.73.31 1.08.47l2.11.94 1.02.47.78.36c.11.06.22.11.33.16l.76.37c.58.27 1.15.56 1.71.83l2.18 1.13 2.06 1.13.32.18c.15.08.3.17.45.25.51.29 1 .59 1.49.88.96.59 1.87 1.17 2.72 1.75.19.13.37.26.56.38.63.45 1.23.89 1.79 1.34.2.15.38.3.56.44.15.14.31.26.46.4.52.45 1 .88 1.44 1.32.148.136.288.279.42.43a1.21 1.21 0 0 1 .16.16c.2.2.38.4.55.6.026.028.05.058.07.09a16.41 16.41 0 0 1 .67.84c.1.14.21.28.3.42a7.69 7.69 0 0 1 .34.52c.09.14.17.29.25.43a7.23 7.23 0 0 1 .54 1.13 5.24 5.24 0 0 1 .27.82c.076.266.133.536.17.81z" fill="#2f2e41"/><path d="m543.992 461.437-.11 7.23-.04 1.29-.46 15.43-.04 1.07-1.48 29.02c-1.41 24.66-3.87 3.39-6.34 12.04-6.86-4.22-14.38-8.64-22.42-13.18q-2.175-1.23-4.39-2.47c-16.08-8.97-34.04-18.37-52.79-27.68l-2.23-1.1c-42.95-21.23-89.83-41.88-127.81-55.66-7.33-2.66-14.33-5.06-20.91-7.17-13.86-4.43-25.84-7.53-35.06-8.87-9.6-1.4-16.23-.9-18.91 1.99q-.15-3.06-.31-5.86l-.12-1.83c.062-.165.142-.322.22-.48.011-.023.019-.047.03-.07a1 1 0 0 1 .07-.15c.029-.062.063-.122.1-.18a1.06 1.06 0 0 1 .12-.2 5.59 5.59 0 0 1 .3-.43c.081-.105.168-.205.26-.3.031-.048.068-.092.11-.13s.08-.09.13-.14a.304.304 0 0 1 .08-.08c.079-.091.166-.175.26-.25a9.697 9.697 0 0 1 1.14-.9c.14-.09.29-.18.43-.28a19.11 19.11 0 0 1 3.17-1.52c.38-.14.76-.27 1.17-.41.15-.04.29-.09.44-.14.22-.07.44-.14.67-.19 1.14-.34 2.37-.63 3.7-.9l1.24-.23 1.04-.18c2.97-.47 6.34-.82 10.06-1.05l1.05-.06 1.24-.06c.35-.02.71-.03 1.07-.04a36.27 36.27 0 0 1 1.08-.04l3.11-.08c3.02-.05 6.2-.03 9.54.04l4.75.15c.1 0 .21.01.31.01l4.29.18 3.08.16 2.94.19 2.32.15 1.98.14 2.38.18 3.32.27 3.37.3 3.41.32.34.03 3.13.32q8.73.885 17.97 2.07 5.52.705 11.18 1.51l17.41 2.63q8.805 1.425 17.71 3.01l4.51.82q2.76.51 5.52 1.04l3.48.67 4.15.81 26.95 5.73 4.34 1q4.32 1.005 8.56 2.04l2.32.57q2.895.72 5.73 1.44v.01c.11.02.22.05.33.08l4.11 1.06q4.815 1.26 9.47 2.54l6.11 1.73 8.83 2.64 2.12.65q3.15.99 6.18 1.97l4.7 1.58q2.31.795 4.53 1.59l2.83 1.03 3.98 1.51 1.18.46c.73.28 1.44.57 2.14.86.47.18.93.37 1.39.57l1.35.56a31.27 31.27 0 0 1 1.33.57c.37.15.73.31 1.08.47l2.11.94 1.02.47.78.36c.11.06.22.11.33.16l2.47 1.2 2.18 1.13c.83.44 1.62.87 2.38 1.31.15.08.3.17.45.25.51.29 1 .59 1.49.88.96.59 1.87 1.17 2.72 1.75.84.58 1.62 1.15 2.35 1.72l1.02.84c.52.45 1 .88 1.44 1.32.148.136.288.279.42.43a1.21 1.21 0 0 1 .16.16l.62.69a16.41 16.41 0 0 1 .67.84c.1.14.21.28.3.42a7.69 7.69 0 0 1 .34.52c.09.14.17.29.25.43.212.36.393.738.54 1.13.109.267.2.541.27.82.076.266.133.536.17.81z" opacity=".2"/><defs><path id="a" d="M341.616 187.751h-14.6a1.106 1.106 0 0 0 0 2.21h14.6a1.106 1.106 0 0 0 0-2.21z"/></defs></svg>