<svg xmlns="http://www.w3.org/2000/svg" data-name="Layer 1" width="731.7" height="436.4"><path d="M43 335c-21-8-40-27-42-50a106 106 0 0 0 70 17c10-2 20-4 28 1 5 3 9 9 10 15l1 17 1 2c-23 4-46 6-68-2Z" fill="#f0f0f0"/><path d="M1 285a90 90 0 0 0 44 33 39 39 0 0 0 12 3 22 22 0 0 0 12-3l10-5a14 14 0 0 1 11 1c4 3 7 7 9 11 3 4 6 9 11 11v1c-9-5-12-14-19-20-3-3-7-5-11-4l-10 5a24 24 0 0 1-11 4 36 36 0 0 1-12-2 88 88 0 0 1-25-12 92 92 0 0 1-22-22l1-1Z" fill="#fff"/><path d="M40 317a14 14 0 0 1-17 7l1-1a13 13 0 0 0 15-7l1 1Zm27 2a26 26 0 0 0-12-15l1-1a27 27 0 0 1 12 16h-1Zm-52-18a8 8 0 0 0 1-7h1a9 9 0 0 1-1 8 1 1 0 0 1-1 0 1 1 0 0 1 0-1Z" fill="#fff"/><path d="M55 230v1a101 101 0 0 0 7 15l1 1a106 106 0 0 0 26 30 103 103 0 0 0 13 8c6 4 13 7 18 13a18 18 0 0 1 1 1l-8 37h-1v2l-1-1h-1l-4-2a152 152 0 0 1-30-20l-1-1a99 99 0 0 1-11-12 87 87 0 0 1-5-7 72 72 0 0 1-9-21 58 58 0 0 1 5-44Z" fill="#f0f0f0"/><path d="M55 230a90 90 0 0 0 16 54 39 39 0 0 0 8 9 22 22 0 0 0 11 4c4 0 7 0 11 2a14 14 0 0 1 8 8l1 14c0 5 0 11 2 16h-1c-4-9-1-18-3-27 0-4-3-8-7-10l-11-2a24 24 0 0 1-11-4 36 36 0 0 1-8-9 88 88 0 0 1-12-24 92 92 0 0 1-5-31h1Z" fill="#fff"/><path d="M67 279a14 14 0 0 1-17-5h1a13 13 0 0 0 16 4v1Zm21 18a26 26 0 0 0-1-19h1a27 27 0 0 1 1 19h-1Zm-31-46a8 8 0 0 0 5-5l1 1a9 9 0 0 1-6 5 1 1 0 0 1 0-1Z" fill="#fff"/><path d="M695 334c20-10 37-31 36-54a106 106 0 0 1-68 25c-10-1-20-2-28 4-4 4-7 10-8 16l1 18v1c23 2 47 0 67-10Z" fill="#f0f0f0"/><path d="M731 280a90 90 0 0 1-40 38 39 39 0 0 1-12 4 22 22 0 0 1-12-2l-10-4a14 14 0 0 0-11 4c-4 3-6 7-8 11-3 5-5 9-9 13-1 0 0 1 0 0 8-5 10-15 16-22 3-3 6-5 11-5l11 4a24 24 0 0 0 11 2 36 36 0 0 0 12-3 88 88 0 0 0 22-15 92 92 0 0 0 20-25h-1Z" fill="#fff"/><path d="M696 316a14 14 0 0 0 17 5v-1a13 13 0 0 1-16-5l-1 1Zm-27 5a26 26 0 0 1 10-16v-1a27 27 0 0 0-11 17h1Zm50-24a8 8 0 0 1-2-7h-1a9 9 0 0 0 2 8 1 1 0 0 0 1 0 1 1 0 0 0 0-1Z" fill="#fff"/><path d="M670 232v1a101 101 0 0 1-5 15v1a106 106 0 0 1-22 33 103 103 0 0 1-12 10c-6 5-13 9-16 15a18 18 0 0 0-2 2l13 35 1 1h1v-1l4-2a152 152 0 0 0 28-24v-1a99 99 0 0 0 10-13 87 87 0 0 0 4-7 72 72 0 0 0 7-22 58 58 0 0 0-11-43Z" fill="#f0f0f0"/><path d="M670 232a90 90 0 0 1-9 55 39 39 0 0 1-7 10 22 22 0 0 1-10 5l-11 3a14 14 0 0 0-6 9c-2 5-1 10 0 15v15h1c3-8-2-17-1-27 0-4 2-8 6-10l11-4a24 24 0 0 0 10-5 36 36 0 0 0 7-10 88 88 0 0 0 9-25 92 92 0 0 0 1-32l-1 1Z" fill="#fff"/><path d="M664 281a14 14 0 0 0 17-6h-1a13 13 0 0 1-16 5v1Zm-18 21a26 26 0 0 1-2-19h-1a27 27 0 0 0 2 19h1Zm25-49a8 8 0 0 1-6-5l-1 1a9 9 0 0 0 7 5 1 1 0 0 0 0-1ZM637 15H494v9a2 2 0 0 0 0 2v273c0 24 0 42 2 42h139c1 0 2-18 2-42V26a2 2 0 0 0 0-2Z" fill="#fff"/><path d="M635 342H496c-1 0-2 0-3-13V52a694 694 0 0 1 3-43h139c1 0 2 1 2 6l1 11v303c-1 13-2 13-3 13Zm-139-2h139l1-41V26l-1-11a29 29 0 0 0 0-4H496a29 29 0 0 0 0 4 230 230 0 0 0-1 37v247l1 41Z" fill="#e4e4e4"/><path d="M635 10H496a2 2 0 0 0-2 2v12a2 2 0 0 0 0 2 2 2 0 0 0 2 0h139a2 2 0 0 0 2 0 2 2 0 0 0 0-2V12a2 2 0 0 0-2-2Z" fill="#cacaca"/><circle data-name="Ellipse 90" cx="505.6" cy="17.6" r="2.9" fill="#fff"/><circle data-name="Ellipse 91" cx="516.7" cy="17.6" r="2.9" fill="#fff"/><circle data-name="Ellipse 92" cx="527.9" cy="17.6" r="2.9" fill="#fff"/><path d="M624 14h-13a1 1 0 0 0 0 1 1 1 0 0 0 0 1h13a1 1 0 0 0 1-1 1 1 0 0 0-1-1Zm0 3h-13a1 1 0 0 0 0 2h13a1 1 0 1 0 0-2Zm0 4h-13a1 1 0 0 0 0 2h13a1 1 0 1 0 0-2Z" fill="#fff"/><path d="M579 53h-26a5 5 0 0 0-5 5v23a5 5 0 0 0 5 5h26a5 5 0 0 0 5-5V58a5 5 0 0 0-5-5Z" fill="#6c63ff"/><path d="M612 101h-92a2 2 0 1 0 0 4h92a2 2 0 1 0 0-4Zm-57 11h-35a2 2 0 1 0 0 4h35a2 2 0 1 0 0-4Z" fill="#e4e4e4"/><path d="M579 152h-26a5 5 0 0 0-5 5v23a5 5 0 0 0 5 5h26a5 5 0 0 0 5-5v-23a5 5 0 0 0-5-5Z" fill="#6c63ff"/><path d="M612 200h-92a2 2 0 1 0 0 4h92a2 2 0 1 0 0-4Zm-57 11h-35a2 2 0 1 0 0 4h35a2 2 0 1 0 0-4Z" fill="#e4e4e4"/><path d="M579 251h-26a5 5 0 0 0-5 5v23a5 5 0 0 0 5 5h26a5 5 0 0 0 5-5v-23a5 5 0 0 0-5-5Z" fill="#6c63ff"/><path d="M612 299h-92a2 2 0 1 0 0 4h92a2 2 0 1 0 0-4Zm-57 11h-35a2 2 0 1 0 0 4h35a2 2 0 1 0 0-4Z" fill="#e4e4e4"/><path d="M454 3a2 2 0 0 0-2-2H83a2 2 0 0 0-2 2v12a2 2 0 0 0 0 2v306c0 25 0 46 2 46h369c1 0 2-21 2-46V17a2 2 0 0 0 0-2Z" fill="#fff"/><path d="M452 370H83c-2 0-2 0-3-14V17c1-17 1-17 3-17h369a821 821 0 0 1 3 48v275a790 790 0 0 1-3 47Zm-369-2h369l1-45V17l-1-15H83l-1 15v306l1 45Z" fill="#e4e4e4"/><path d="M452 1H83a2 2 0 0 0-2 2v12a2 2 0 0 0 0 2 2 2 0 0 0 2 0h369a2 2 0 0 0 2 0 2 2 0 0 0 0-2V3a2 2 0 0 0-2-2Z" fill="#cacaca"/><circle data-name="Ellipse 90" cx="92.6" cy="8.6" r="2.9" fill="#fff"/><circle data-name="Ellipse 91" cx="103.7" cy="8.6" r="2.9" fill="#fff"/><circle data-name="Ellipse 92" cx="114.9" cy="8.6" r="2.9" fill="#fff"/><path d="M441 5h-13a1 1 0 0 0 0 2h13a1 1 0 1 0 0-2Zm0 3h-13a1 1 0 0 0 0 2h13a1 1 0 1 0 0-2Zm0 4h-13a1 1 0 0 0 0 2h13a1 1 0 1 0 0-2Z" fill="#fff"/><path d="M202 62h-43a8 8 0 0 0-8 8v38a8 8 0 0 0 8 8h43a8 8 0 0 0 8-8V70a8 8 0 0 0-8-8Z" fill="#6c63ff"/><path d="M381 77H230a4 4 0 0 0 0 7h151a4 4 0 0 0 0-7Zm-94 17h-57a4 4 0 0 0 0 7h57a4 4 0 0 0 0-7Z" fill="#e4e4e4"/><path d="M202 162h-43a8 8 0 0 0-8 8v38a8 8 0 0 0 8 8h43a8 8 0 0 0 8-8v-38a8 8 0 0 0-8-8Z" fill="#6c63ff"/><path d="M381 177H230a4 4 0 0 0 0 7h151a4 4 0 0 0 0-7Zm-94 17h-57a4 4 0 0 0 0 7h57a4 4 0 0 0 0-7Z" fill="#e4e4e4"/><path d="M202 262h-43a8 8 0 0 0-8 8v38a8 8 0 0 0 8 8h43a8 8 0 0 0 8-8v-38a8 8 0 0 0-8-8Z" fill="#6c63ff"/><path d="M381 277H230a4 4 0 0 0 0 7h151a4 4 0 0 0 0-7Zm-94 17h-57a4 4 0 0 0 0 7h57a4 4 0 0 0 0-7Z" fill="#e4e4e4"/><path d="M518 435H271c-2 0-2-17-2-39V166c0-21 0-39 2-39h247c1 0 2 18 2 39v230c0 22-1 39-2 39Z" fill="#fff"/><path d="M518 436H271c-1 0-2 0-3-12V138c1-12 2-12 3-12h247a554 554 0 0 1 3 40v258c-1 12-2 12-3 12Zm-247-2h247l1-38V166l-1-38H271l-1 38v230l1 38Z" fill="#e4e4e4"/><path d="M518 143H271a2 2 0 0 1-2-2v-12a2 2 0 0 1 2-2h247a2 2 0 0 1 2 2v12a2 2 0 0 1-2 2Z" fill="#cacaca"/><circle data-name="Ellipse 90" cx="280.6" cy="134.6" r="2.9" fill="#fff"/><circle data-name="Ellipse 91" cx="291.7" cy="134.6" r="2.9" fill="#fff"/><circle data-name="Ellipse 92" cx="302.9" cy="134.6" r="2.9" fill="#fff"/><path d="M507 133h-13a1 1 0 0 1 0-2h13a1 1 0 0 1 0 2Zm0 3h-13a1 1 0 0 1 0-2h13a1 1 0 1 1 0 2Zm0 4h-13a1 1 0 0 1 0-2h13a1 1 0 0 1 0 2Z" fill="#fff"/><path d="M347 219h-32a6 6 0 0 1-6-6v-27a6 6 0 0 1 6-6h32a6 6 0 0 1 6 6v27a6 6 0 0 1-6 6Z" fill="#6c63ff"/><path d="M477 196H367a3 3 0 0 1 0-6h110a3 3 0 0 1 0 6Zm-68 12h-42a3 3 0 1 1 0-5h42a3 3 0 1 1 0 5Z" fill="#e4e4e4"/><path d="M347 300h-32a6 6 0 0 1-6-6v-27a6 6 0 0 1 6-6h32a6 6 0 0 1 6 6v27a6 6 0 0 1-6 6Z" fill="#6c63ff"/><path d="M477 277H367a3 3 0 0 1 0-6h110a3 3 0 0 1 0 6Zm-68 12h-42a3 3 0 1 1 0-5h42a3 3 0 1 1 0 5Z" fill="#e4e4e4"/><path d="M347 381h-32a6 6 0 0 1-6-6v-27a6 6 0 0 1 6-6h32a6 6 0 0 1 6 6v27a6 6 0 0 1-6 6Z" fill="#6c63ff"/><path d="M477 358H367a3 3 0 1 1 0-6h110a3 3 0 1 1 0 6Zm-68 12h-42a3 3 0 1 1 0-5h42a3 3 0 1 1 0 5Z" fill="#e4e4e4"/></svg>